<?xml version="1.0" encoding="UTF-8"?>
<svg version="1.1" xmlns="http://www.w3.org/2000/svg" width="817" height="1080">
<path d="M0 0 C1.02254631 -0.00788544 1.02254631 -0.00788544 2.06575012 -0.01593018 C4.32108437 -0.02914066 6.57571313 -0.02038504 8.83105469 -0.01025391 C10.4018365 -0.01227529 11.97261739 -0.01518727 13.543396 -0.01895142 C16.83875445 -0.02337695 20.1338691 -0.01694001 23.42919922 -0.00292969 C27.64023033 0.01410629 31.85068544 0.00435838 36.0616951 -0.01364708 C39.30806759 -0.024527 42.55430534 -0.02101841 45.80068207 -0.0132637 C47.3523236 -0.01127037 48.90397759 -0.01369036 50.45560455 -0.02070236 C52.63348886 -0.02838017 54.81046406 -0.01662346 56.98828125 0 C58.22499573 0.00238678 59.46171021 0.00477356 60.73590088 0.00723267 C64.90239249 0.45853089 67.65210852 1.21529069 71.25292969 3.38818359 C72.63943788 6.07083082 73.43627167 8.10736779 74.19970703 10.96362305 C74.43011185 11.73517227 74.66051666 12.5067215 74.89790344 13.301651 C75.65506357 15.861245 76.37170813 18.4304035 77.08886719 21.00146484 C77.61532084 22.80933514 78.14430867 24.61646919 78.6756897 26.42289734 C80.07466919 31.20325994 81.43988881 35.9926297 82.79803467 40.784729 C84.15185704 45.54157714 85.53516147 50.28980191 86.91699219 55.03857422 C88.80295743 61.52914908 90.67988344 68.0221953 92.54415035 74.51903629 C96.29172901 87.57726377 100.18142506 100.58861801 104.11010742 113.59353638 C106.26402125 120.74542985 108.39249759 127.904909 110.52246094 135.06396484 C110.74682894 135.81791975 110.97119694 136.57187466 111.20236397 137.34867668 C112.58631481 141.99946295 113.96950566 146.65047481 115.35222244 151.30162811 C116.07814328 153.74344903 116.80419373 156.1852314 117.53024292 158.62701416 C122.99159303 176.99609572 128.44644829 195.36684251 133.81542969 213.76318359 C134.04531586 214.55080078 134.27520203 215.33841797 134.51205444 216.14990234 C135.41723629 219.25160069 136.32229123 222.35333605 137.22721863 225.45510864 C145.84739514 254.98815694 154.6615566 284.46304955 163.51123047 313.92797852 C168.27375666 329.78517105 173.02603975 345.64532844 177.75292969 361.51318359 C178.03928284 362.4742099 178.32563599 363.43523621 178.6206665 364.42538452 C181.43900236 373.88696933 184.2484019 383.35101267 187.02246094 392.82568359 C187.23866089 393.56397903 187.45486084 394.30227448 187.6776123 395.0629425 C188.50761206 397.89803218 189.3375379 400.73314236 190.16595459 403.56869507 C192.33940891 411.00299636 194.55568051 418.42099633 196.86621094 425.81396484 C197.07883072 426.4945697 197.2914505 427.17517456 197.51051331 427.87640381 C198.52019684 431.10243204 199.53717845 434.32584219 200.56274414 437.546875 C201.09387817 439.22982666 201.09387817 439.22982666 201.63574219 440.94677734 C201.94914551 441.92960693 202.26254883 442.91243652 202.58544922 443.92504883 C203.25292969 446.38818359 203.25292969 446.38818359 203.25292969 449.38818359 C204.07265259 449.14491333 204.07265259 449.14491333 204.90893555 448.89672852 C237.73152859 441.77565141 281.16783668 459.26063406 308.25292969 476.38818359 C312.04653383 478.91106948 315.67674145 481.56728631 319.25292969 484.38818359 C320.08953125 485.03400391 320.92613281 485.67982422 321.78808594 486.34521484 C330.2613486 492.98500491 339.31903626 500.09965536 346.25292969 508.38818359 C346.25292969 509.04818359 346.25292969 509.70818359 346.25292969 510.38818359 C346.91292969 510.38818359 347.57292969 510.38818359 348.25292969 510.38818359 C349.84691945 512.20594499 351.30596941 514.01992796 352.75292969 515.95068359 C353.19435303 516.53495117 353.63577637 517.11921875 354.09057617 517.72119141 C384.24111979 558.06444672 398.88062599 606.60366319 391.94042969 657.03271484 C388.9140899 676.90658015 383.32228241 695.44091567 374.25292969 713.38818359 C373.94629395 714.00790039 373.6396582 714.62761719 373.32373047 715.26611328 C366.78009123 728.43480562 358.50504485 739.93789642 349.06542969 751.18115234 C347.13557905 753.45653593 347.13557905 753.45653593 345.25292969 756.38818359 C344.59292969 756.38818359 343.93292969 756.38818359 343.25292969 756.38818359 C343.0428125 756.93216797 342.83269531 757.47615234 342.61621094 758.03662109 C340.74864799 761.25803341 338.17450173 763.5409989 335.44042969 766.01318359 C334.86655518 766.53734863 334.29268066 767.06151367 333.70141602 767.6015625 C327.82385474 772.89705226 321.60263709 777.67818983 315.25292969 782.38818359 C313.66930627 783.57529672 312.08592435 784.76273216 310.50292969 785.95068359 C309.58253906 786.63324219 309.58253906 786.63324219 308.64355469 787.32958984 C307.27135272 788.32498144 307.27135272 788.32498144 306.25292969 789.38818359 C310.75566754 805.0474747 315.3197383 820.68682056 320.01522255 836.28946114 C321.32222642 840.6328948 322.62656483 844.97712913 323.93115234 849.32128906 C324.33906557 850.67935779 324.33906557 850.67935779 324.75521946 852.06486225 C327.8023565 862.21257582 330.83473426 872.3646892 333.86621094 882.51708984 C334.42236345 884.37926528 334.97852598 886.24143772 335.53469849 888.10360718 C337.78216725 895.6289024 340.0292506 903.15431258 342.27563477 910.67993164 C343.67899772 915.38127662 345.08307573 920.08240766 346.48742294 924.78345871 C347.29185841 927.47739742 348.0953253 930.17162366 348.89871216 932.86587524 C351.10150919 940.24651629 353.31360235 947.62294359 355.60205078 954.97753906 C356.10565376 956.60054176 356.10565376 956.60054176 356.61943054 958.2563324 C357.21001199 960.15065373 357.80641738 962.0431761 358.41047668 963.9332428 C358.6603685 964.73426926 358.91026031 965.53529572 359.16772461 966.3605957 C359.38023361 967.02788193 359.59274261 967.69516815 359.81169128 968.38267517 C360.33437064 970.75834745 360.32608358 972.96327614 360.25292969 975.38818359 C353.43266823 978.24800374 346.58230497 980.62332072 339.48730469 982.70068359 C338.49144348 982.99628174 337.49558228 983.29187988 336.46954346 983.59643555 C333.3152989 984.53145632 330.1591495 985.45985518 327.00292969 986.38818359 C324.90254488 987.01015952 322.80228343 987.63255216 320.70214844 988.25537109 C316.68161474 989.44679278 312.65878764 990.62990784 308.63378906 991.80615234 C305.3565369 992.76452079 302.08690928 993.74153653 298.82519531 994.75146484 C297.58962891 995.12658203 296.3540625 995.50169922 295.08105469 995.88818359 C293.54046387 996.36771484 293.54046387 996.36771484 291.96875 996.85693359 C289.04222284 997.42940061 287.10472131 997.18099992 284.25292969 996.38818359 C270.29466789 950.71527813 256.59331379 904.96561435 242.94042969 859.20068359 C242.40849503 857.41783463 242.40849503 857.41783463 241.86581421 855.59896851 C239.93871317 849.13873175 238.01449117 842.67765057 236.09417725 836.21539307 C235.28714934 833.50318675 234.47660571 830.79205195 233.66552734 828.08105469 C233.20102784 826.52071344 232.73666198 824.96033241 232.27246094 823.39990234 C231.95881844 822.35682671 231.95881844 822.35682671 231.63883972 821.29267883 C230.25292969 816.61591397 230.25292969 816.61591397 230.25292969 814.38818359 C229.36992188 814.46037109 228.48691406 814.53255859 227.57714844 814.60693359 C207.08863506 816.19143731 187.07760985 815.04325345 167.25292969 809.38818359 C165.35994141 808.84871094 165.35994141 808.84871094 163.42871094 808.29833984 C143.65528413 802.16175911 125.40521255 791.19399901 109.25292969 778.38818359 C108.34027344 777.66888672 107.42761719 776.94958984 106.48730469 776.20849609 C92.71031195 765.14753907 79.66747348 752.88462531 68.25292969 739.38818359 C67.42148437 738.43427734 66.59003906 737.48037109 65.73339844 736.49755859 C59.55318009 729.3703359 53.90156069 722.00304075 48.53857422 714.24462891 C47.20170341 712.31421385 45.85104731 710.39394764 44.49902344 708.47412109 C38.7355898 700.24565876 33.34325307 691.86943719 28.29833984 683.18212891 C27.28866692 681.44950942 26.26133644 679.72721695 25.23339844 678.00537109 C20.89174808 670.62370915 17.10720059 663.10864892 13.57324219 655.31103516 C11.69941678 651.22602585 9.68166626 647.35412586 7.33105469 643.52099609 C4.0615358 638.18494318 1.3513232 632.64223772 -1.37207031 627.01318359 C-13.55409526 602.27598026 -28.5258256 578.67337353 -46.85009766 558.01879883 C-49.07483639 555.48618191 -50.66925544 553.62162821 -51.74707031 550.38818359 C-52.73707031 550.05818359 -53.72707031 549.72818359 -54.74707031 549.38818359 C-56.11425781 547.96240234 -56.11425781 547.96240234 -57.62207031 546.07568359 C-65.73403814 536.54625612 -75.91953048 526.76440149 -86.74707031 520.38818359 C-87.73707031 520.71818359 -88.72707031 521.04818359 -89.74707031 521.38818359 C-90.79994063 523.4318997 -90.79994063 523.4318997 -91.54614258 526.01318359 C-92.03028877 527.51225502 -92.03028877 527.51225502 -92.5242157 529.04161072 C-92.86717178 530.14597977 -93.21012787 531.25034882 -93.56347656 532.38818359 C-94.11628044 534.11779076 -94.11628044 534.11779076 -94.68025208 535.88233948 C-95.69026743 539.05082451 -96.68930653 542.22238769 -97.68364716 545.39580154 C-98.73414507 548.73965162 -99.79825016 552.07916651 -100.86083984 555.41918945 C-102.84936085 561.67679683 -104.82554804 567.93822579 -106.79714203 574.20118427 C-109.03579592 581.31017047 -111.29176672 588.41361647 -113.54785156 595.51708984 C-120.63648841 617.85814404 -127.64596796 640.2225823 -134.55102539 662.62103271 C-138.21207258 674.49290677 -141.94481341 686.33697516 -145.78442383 698.15258789 C-148.41509268 706.24862936 -151.01507245 714.35385095 -153.59472656 722.46630859 C-153.93145386 723.5246138 -154.26818115 724.58291901 -154.6151123 725.67329407 C-155.97239816 729.93966441 -157.32954669 734.20607303 -158.68280029 738.47372437 C-159.62820752 741.45489981 -160.57611463 744.43527086 -161.52441406 747.41552734 C-161.80527359 748.3038324 -162.08613312 749.19213745 -162.37550354 750.10736084 C-164.01921917 755.26486849 -165.80398328 760.3355728 -167.74707031 765.38818359 C-123.64160706 764.81857396 -91.81077376 750.16161757 -60.30957031 719.45068359 C-59.56908447 718.74097412 -58.82859863 718.03126465 -58.06567383 717.30004883 C-54.29153019 713.52679774 -51.80877779 711.02119474 -51.74707031 705.38818359 C-52.6171875 704.9840625 -52.6171875 704.9840625 -53.50488281 704.57177734 C-56.62610757 702.92416219 -59.20464145 700.78364942 -61.95800781 698.58740234 C-64.08813859 696.90776141 -66.23385286 695.2741463 -68.41113281 693.65771484 C-69.68981848 692.69292389 -70.96846433 691.72808016 -72.24707031 690.76318359 C-72.87081543 690.3082251 -73.49456055 689.8532666 -74.13720703 689.38452148 C-77.83613918 686.56149074 -79.11738419 684.94959171 -79.74707031 680.38818359 C-63.82031075 678.16274987 -47.87506404 676.11370559 -31.91137695 674.17114258 C-29.3234533 673.85505404 -26.73589048 673.53599829 -24.14868164 673.21411133 C-20.3449989 672.74094761 -16.54034006 672.27649659 -12.73535156 671.81396484 C-11.5924617 671.67025955 -10.44957184 671.52655426 -9.27204895 671.37849426 C-2.39295962 670.55465447 4.32587544 670.21008862 11.25292969 670.38818359 C12.80225761 675.38661603 13.77166455 680.26367871 14.39794922 685.46313477 C14.49577698 686.23801743 14.59360474 687.01290009 14.69439697 687.81126404 C15.01356522 690.35058686 15.32480711 692.89080935 15.63574219 695.43115234 C15.85667261 697.20523649 16.07802314 698.97926836 16.29977417 700.75325012 C16.76202091 704.4604929 17.22058802 708.16816533 17.67626953 711.8762207 C18.26034441 716.62825307 18.85145662 721.37937595 19.44503975 726.130229 C19.90173891 729.78879392 20.35581626 733.44768019 20.80898666 737.10668373 C21.0261271 738.8590413 21.24382826 740.61132948 21.46210098 742.36354637 C21.76613547 744.80920227 22.06690259 747.25523749 22.36669922 749.70141602 C22.50224716 750.78543701 22.50224716 750.78543701 22.64053345 751.89135742 C23.03036646 755.09880659 23.25292969 758.14874877 23.25292969 761.38818359 C22.26292969 761.71818359 21.27292969 762.04818359 20.25292969 762.38818359 C14.39440326 759.05018598 9.35082061 754.45617212 4.17480469 750.16552734 C-2.41999906 744.37602434 -2.41999906 744.37602434 -10.22753906 740.72802734 C-14.3280582 741.80242693 -16.36387429 744.81032477 -19.05957031 747.95068359 C-20.30398113 749.33735537 -21.5528356 750.72004976 -22.80566406 752.09912109 C-23.4526123 752.81165039 -24.09956055 753.52417969 -24.76611328 754.25830078 C-56.5044253 788.38265795 -100.42795014 813.05720302 -147.52490234 815.31982422 C-159.26161789 815.56882258 -171.02606041 814.94418163 -182.74707031 814.38818359 C-183.0279248 815.28609619 -183.3087793 816.18400879 -183.59814453 817.10913086 C-188.44432335 832.5958412 -193.3003123 848.07828519 -198.30957031 863.51318359 C-203.20679333 878.61142611 -207.975317 893.74989292 -212.74707031 908.88818359 C-218.33787695 926.62384094 -223.94946727 944.35085359 -229.69628906 962.03662109 C-231.10153926 966.36688338 -232.47664648 970.70520609 -233.82910156 975.05224609 C-234.15499268 976.09550049 -234.48088379 977.13875488 -234.81665039 978.21362305 C-235.41430772 980.1323681 -236.00702072 982.05266412 -236.59350586 983.97485352 C-236.85043213 984.79832275 -237.1073584 985.62179199 -237.37207031 986.47021484 C-237.70078125 987.54106323 -237.70078125 987.54106323 -238.03613281 988.63354492 C-238.74707031 990.38818359 -238.74707031 990.38818359 -240.74707031 992.38818359 C-248.75189809 992.00213935 -256.9104995 988.56752951 -264.45410156 986.10693359 C-265.7504852 985.68816372 -267.04701208 985.26983704 -268.34367371 984.85192871 C-271.04166197 983.98115052 -273.73845644 983.10680685 -276.43432617 982.22949219 C-279.88013007 981.10817528 -283.32796662 979.9932772 -286.77660084 978.88069916 C-290.08650106 977.81254075 -293.39532212 976.74105761 -296.70410156 975.66943359 C-297.93747757 975.27042847 -299.17085358 974.87142334 -300.44160461 974.46032715 C-301.59017441 974.08653931 -302.7387442 973.71275146 -303.92211914 973.32763672 C-304.9289827 973.00057739 -305.93584625 972.67351807 -306.97322083 972.33654785 C-309.60459125 971.43689642 -312.17576455 970.44608889 -314.74707031 969.38818359 C-314.21140642 963.12652406 -313.11772454 957.58791641 -311.15722656 951.63037109 C-310.76774338 950.41223724 -310.76774338 950.41223724 -310.37039185 949.16949463 C-309.52477069 946.53141224 -308.66723841 943.89737128 -307.80957031 941.26318359 C-307.21089058 939.40259434 -306.61299973 937.54175107 -306.01586914 935.68066406 C-304.53485736 931.07145472 -303.04451703 926.46533884 -301.54968262 921.8605957 C-299.67305318 916.07972079 -297.80477077 910.29614072 -295.93457031 904.51318359 C-295.35751343 902.73306885 -295.35751343 902.73306885 -294.76879883 900.91699219 C-290.3198846 887.15037384 -286.01690034 873.33792477 -281.69644165 859.53057861 C-277.55555756 846.29984562 -273.39370259 833.07733092 -269.12207031 819.88818359 C-268.72971191 818.67469238 -268.33735352 817.46120117 -267.93310547 816.2109375 C-266.54598498 811.92539229 -265.15734668 807.64041491 -263.75488281 803.35986328 C-262.87139128 800.66284109 -261.99598451 797.96332067 -261.12207031 795.26318359 C-260.87376465 794.51617188 -260.62545898 793.76916016 -260.36962891 792.99951172 C-258.56773582 787.76500537 -258.56773582 787.76500537 -258.74707031 782.38818359 C-260.67098025 780.39793193 -262.45113451 778.81116796 -264.62207031 777.13818359 C-265.82233473 776.16942564 -267.02154261 775.19935729 -268.21972656 774.22802734 C-269.11715576 773.51042236 -269.11715576 773.51042236 -270.03271484 772.77832031 C-307.23919869 742.6083233 -330.12977085 698.71841136 -335.74707031 651.38818359 C-340.38112449 604.48477001 -327.84359371 556.28282258 -298.05957031 519.32568359 C-296.6363981 517.66744523 -295.19934382 516.02099567 -293.74707031 514.38818359 C-292.67392578 513.15261719 -292.67392578 513.15261719 -291.57910156 511.89208984 C-289.34034175 509.35218712 -287.05718232 506.8633036 -284.74707031 504.38818359 C-283.95042969 503.52580078 -283.15378906 502.66341797 -282.33300781 501.77490234 C-266.79936043 485.56077797 -247.9185361 473.93342726 -227.74707031 464.38818359 C-226.06871094 463.58380859 -226.06871094 463.58380859 -224.35644531 462.76318359 C-201.38314234 452.31087513 -175.87398982 448.02280333 -150.74707031 448.38818359 C-150.5964917 447.80439941 -150.44591309 447.22061523 -150.29077148 446.61914062 C-147.84991536 437.40467065 -144.94762046 428.34451292 -142.05957031 419.26318359 C-141.51652236 417.54993696 -140.97363668 415.83663888 -140.4309082 414.12329102 C-137.22456903 404.00789389 -133.99680647 393.89941726 -130.75170898 383.79638672 C-128.16062956 375.71609195 -125.61824288 367.62092717 -123.08059692 359.52374268 C-117.08224855 340.38597045 -110.94073513 321.29662823 -104.7441864 302.22221375 C-97.06642126 278.58414221 -89.5732273 254.8915818 -82.18457031 231.16162109 C-81.35153112 228.4870502 -80.51819042 225.81257348 -79.68457031 223.13818359 C-79.47800812 222.47539398 -79.27144592 221.81260437 -79.05862427 221.12973022 C-76.13631955 211.75968546 -73.1520439 202.41158237 -70.12207031 193.07568359 C-65.5680188 179.04303309 -61.15279206 164.96802725 -56.74707031 150.88818359 C-51.53075681 134.22277995 -46.26473868 117.57742763 -40.8762207 100.96687317 C-37.72792176 91.2544445 -34.61052902 81.53204394 -31.49075317 71.8104248 C-30.38050849 68.35196884 -29.26878403 64.89399088 -28.15698242 61.43603516 C-24.75646268 50.84916141 -21.37964686 40.25643253 -18.09082031 29.63427734 C-17.53665631 27.85114465 -16.98245822 26.06802256 -16.42822266 24.28491211 C-15.41280994 21.01638346 -14.40972492 17.74441392 -13.41357422 14.4699707 C-12.96527582 13.02330354 -12.51657187 11.57676196 -12.06738281 10.13037109 C-11.68855957 8.8914209 -11.30973633 7.6524707 -10.91943359 6.37597656 C-8.58671809 0.43100107 -6.26909279 0.01213016 0 0 Z M28.25292969 146.38818359 C23.58342783 161.05394877 18.91704618 175.72070485 14.25292969 190.38818359 C13.82636078 191.72943298 13.82636078 191.72943298 13.39117432 193.09777832 C11.55180046 198.88156438 9.71387222 204.66580738 7.87792969 210.45068359 C7.61858643 211.26783844 7.35924316 212.08499329 7.09204102 212.9269104 C3.7865415 223.34677872 0.50131691 233.77287336 -2.76660156 244.20458984 C-3.11251343 245.3085762 -3.45842529 246.41256256 -3.81481934 247.55000305 C-5.49212065 252.90433556 -7.16771289 258.25919326 -8.84033203 263.61499023 C-12.58704244 275.59696914 -16.40131131 287.55595712 -20.26370049 299.50108337 C-24.84307603 313.66390185 -29.36626186 327.84429466 -33.86829376 342.03189087 C-34.51130514 344.05803792 -35.15464514 346.08408042 -35.79803467 348.11010742 C-41.6690309 366.60064619 -47.48416117 385.1076399 -53.22421265 403.63931274 C-56.85174364 415.34883643 -60.53266754 427.03845297 -64.30957031 438.70068359 C-64.71232178 439.94624023 -65.11507324 441.19179688 -65.5300293 442.47509766 C-67.17728377 447.56310445 -68.83210645 452.64835663 -70.50488281 457.72802734 C-70.98175378 459.19797939 -71.45834938 460.66802082 -71.93457031 462.13818359 C-72.51271484 463.89388672 -72.51271484 463.89388672 -73.10253906 465.68505859 C-74.01577305 468.46147447 -74.01577305 468.46147447 -72.74707031 471.38818359 C-70.29497508 473.04947074 -67.8578937 474.57732796 -65.30957031 476.07568359 C-59.65762633 479.50206926 -54.32167132 483.01447955 -49.25854492 487.28686523 C-47.6130671 488.66361527 -45.95193726 490.02191932 -44.27416992 491.35913086 C-37.29290559 496.93258373 -30.90891313 502.92328725 -24.62207031 509.26318359 C-23.6978125 510.17970703 -22.77355469 511.09623047 -21.82128906 512.04052734 C-15.69824117 518.18084758 -10.14174683 524.60481809 -4.74707031 531.38818359 C-3.74653213 532.59670911 -2.74309101 533.80284384 -1.73535156 535.00537109 C6.73856735 545.26025449 14.08722864 556.19050939 21.25292969 567.38818359 C21.89657471 568.39316895 21.89657471 568.39316895 22.55322266 569.41845703 C31.65904351 583.78160087 39.17684871 599.12786324 46.72167969 614.34912109 C50.01004779 620.87552513 53.43575405 627.32980353 56.87011719 633.78027344 C58.25928562 636.40017054 59.63103721 639.02873869 61.00292969 641.65771484 C80.80312221 679.20111395 108.1729746 717.62224741 143.25292969 742.38818359 C143.80867676 742.78295898 144.36442383 743.17773438 144.93701172 743.58447266 C166.53104373 758.70216145 188.97489208 765.90854077 215.25292969 765.38818359 C212.00691199 751.37159573 207.82176175 737.65202322 203.65174866 723.88804626 C202.65143144 720.58271703 201.65587688 717.27595457 200.66015625 713.96923828 C200.25107872 712.6109282 199.84199053 711.25262134 199.43289185 709.89431763 C199.12702337 708.87875982 199.12702337 708.87875982 198.81497574 707.8426857 C198.19212315 705.77537035 197.56878515 703.70820199 196.94528198 701.64108276 C192.77477055 687.81366923 188.63202942 673.97802323 184.50292969 660.13818359 C184.1527478 658.96473389 183.80256592 657.79128418 183.44177246 656.58227539 C177.0702104 635.22109667 170.81202982 613.82773872 164.58978271 592.42266846 C160.88078871 579.66451176 157.15461939 566.91160031 153.37451172 554.17431641 C152.61397458 551.60696553 151.85654821 549.03892124 151.10400391 546.46923828 C150.02058703 542.77171342 148.9190464 539.07973276 147.81542969 535.38818359 C147.49719238 534.2945752 147.17895508 533.2009668 146.85107422 532.07421875 C146.40223877 530.58994385 146.40223877 530.58994385 145.94433594 529.07568359 C145.6885376 528.21330078 145.43273926 527.35091797 145.16918945 526.46240234 C144.32457075 524.04813809 144.32457075 524.04813809 141.25292969 522.38818359 C121.96794757 536.99939358 104.13896781 554.90592269 90.74121094 575.12646484 C90.34184326 575.72652344 89.94247559 576.32658203 89.53100586 576.94482422 C88.44495093 578.59862626 87.38324817 580.26834705 86.32324219 581.93896484 C84.25292969 584.38818359 84.25292969 584.38818359 81.49511719 585.24365234 C80.75519531 585.29134766 80.01527344 585.33904297 79.25292969 585.38818359 C79.00285156 584.55544922 78.75277344 583.72271484 78.49511719 582.86474609 C77.09611356 578.94929569 75.33586728 575.42200387 73.37792969 571.76318359 C72.99733398 571.03897217 72.61673828 570.31476074 72.22460938 569.56860352 C69.93503497 565.28269846 67.49876983 561.13772508 64.88574219 557.04052734 C64.32483887 556.15123535 63.76393555 555.26194336 63.18603516 554.34570312 C62.07851981 552.60523007 60.95032353 550.8777172 59.80029297 549.16503906 C58.37936743 546.92607351 57.15531323 544.88176621 56.25292969 542.38818359 C57.53666492 537.62575513 60.65538057 534.55825891 64.00292969 531.01318359 C64.89109375 530.06056641 65.77925781 529.10794922 66.69433594 528.12646484 C67.53867187 527.22283203 68.38300781 526.31919922 69.25292969 525.38818359 C70.48964312 523.99903232 71.71980203 522.60399022 72.94042969 521.20068359 C73.48441406 520.57677734 74.02839844 519.95287109 74.58886719 519.31005859 C75.78550086 517.92803097 76.97768334 516.54214464 78.16699219 515.15380859 C78.79347656 514.42677734 79.41996094 513.69974609 80.06542969 512.95068359 C80.62875 512.29197266 81.19207031 511.63326172 81.77246094 510.95458984 C83.25292969 509.38818359 83.25292969 509.38818359 85.25292969 508.38818359 C85.25292969 507.72818359 85.25292969 507.06818359 85.25292969 506.38818359 C85.91292969 506.38818359 86.57292969 506.38818359 87.25292969 506.38818359 C87.25292969 505.72818359 87.25292969 505.06818359 87.25292969 504.38818359 C87.79304687 504.17033203 88.33316406 503.95248047 88.88964844 503.72802734 C92.06126519 501.92990413 94.46843067 499.47082254 97.06542969 496.95068359 C101.83385667 492.43622494 106.75789125 488.31773771 112.06542969 484.45068359 C113.01458252 483.75700684 113.01458252 483.75700684 113.98291016 483.04931641 C117.28547377 480.67730939 120.59251363 478.60770624 124.19042969 476.70068359 C125.70636719 475.55599609 125.70636719 475.55599609 127.25292969 474.38818359 C127.92123221 467.93937654 126.42852488 462.64445505 124.46386719 456.54052734 C124.16934158 455.59324768 123.87481598 454.64596802 123.57136536 453.66998291 C122.93408781 451.62435565 122.29174615 449.5803005 121.64486694 447.53768921 C120.25102448 443.13522507 118.88244465 438.72503001 117.51231384 434.31513977 C116.80183966 432.02902223 116.09012632 429.74328945 115.37721252 427.45793152 C111.96981137 416.52505167 108.69156986 405.55585089 105.44042969 394.57568359 C104.28364283 390.67701875 103.12576104 386.77867944 101.96777344 382.88037109 C101.672276 381.88518463 101.37677856 380.88999817 101.07232666 379.86465454 C97.24097914 366.96914607 93.37096982 354.085223 89.50292969 341.20068359 C88.92948403 339.29023168 88.35603837 337.37977976 87.78259563 335.46932697 C86.43206926 330.97005894 85.08141618 326.47082896 83.73054504 321.97166443 C81.06500747 313.09391418 78.40068633 304.21579969 75.73730469 295.33740234 C75.36663376 294.10179565 74.99596283 292.86618896 74.61405945 291.59313965 C72.75037958 285.38051862 70.88691615 279.16783274 69.02368164 272.95507812 C65.36671134 260.76214583 61.70709238 248.57002283 58.04125214 236.37975502 C56.25679649 230.44531942 54.47334121 224.51058327 52.69042969 218.57568359 C52.49916252 217.93903149 52.30789536 217.30237938 52.11083221 216.64643478 C46.97990409 199.56542337 41.8950406 182.47387015 36.97949219 165.32958984 C35.15537896 158.98958101 33.2132557 152.6872194 31.25292969 146.38818359 C30.26292969 146.38818359 29.27292969 146.38818359 28.25292969 146.38818359 Z M219.25292969 499.38818359 C219.84370771 505.60343692 221.22675586 511.19614879 223.09667969 517.14208984 C223.38162796 518.06779785 223.66657623 518.99350586 223.9601593 519.94726562 C224.56962296 521.92528084 225.18199153 523.90240297 225.79702759 525.87869263 C227.41415403 531.07566606 229.01023683 536.27910323 230.60839844 541.48193359 C230.92564377 542.51282608 231.2428891 543.54371857 231.56974792 544.60585022 C234.1570042 553.02952322 236.63922294 561.47944598 239.06542969 569.95068359 C241.73280197 579.23512124 244.48975131 588.48253145 247.37792969 597.70068359 C251.34786888 610.38099721 255.19146769 623.09691 259.00292969 635.82568359 C259.30807495 636.84458679 259.61322021 637.86348999 259.9276123 638.91326904 C261.24071414 643.29853204 262.55336426 647.68392993 263.86547852 652.06948853 C268.06159232 666.09423062 272.26642277 680.11635792 276.47226715 694.13818455 C277.90348775 698.9097967 279.334169 703.6815701 280.76439095 708.45348167 C281.66034384 711.44251802 282.55667678 714.43144031 283.45310593 717.42033386 C283.87379977 718.82330131 284.29433695 720.22631574 284.71471024 721.62937927 C285.29261806 723.55814114 285.87114656 725.48671701 286.44970703 727.4152832 C286.77530609 728.50135361 287.10090515 729.58742401 287.43637085 730.70640564 C288.01554475 732.6085537 288.62415233 734.50185153 289.25292969 736.38818359 C290.24292969 736.71818359 291.23292969 737.04818359 292.25292969 737.38818359 C317.12148225 723.3010894 332.73082811 690.95954484 340.21875 664.72363281 C345.88894801 643.45851273 345.48776261 620.70706532 340.25292969 599.38818359 C340.06633789 598.62038574 339.87974609 597.85258789 339.6875 597.06152344 C331.08851317 562.86380397 308.95441372 534.24384667 279.12792969 515.70068359 C266.27040324 508.0641435 234.177669 491.92581394 219.25292969 499.38818359 Z M-181.05957031 499.95068359 C-181.95385742 500.1334082 -182.84814453 500.31613281 -183.76953125 500.50439453 C-191.87013784 502.25658151 -199.22119423 504.89588841 -206.74707031 508.38818359 C-207.38032227 508.67145508 -208.01357422 508.95472656 -208.66601562 509.24658203 C-223.1400349 515.76025058 -238.83118728 524.9367012 -249.18457031 537.20068359 C-252.62824123 541.26090694 -252.62824123 541.26090694 -254.39550781 543.15380859 C-269.43665177 559.39541944 -278.27391476 579.19690656 -283.74707031 600.38818359 C-284.08867187 601.63341797 -284.43027344 602.87865234 -284.78222656 604.16162109 C-292.20856445 636.00852124 -285.61111939 672.74480772 -268.70678711 700.67456055 C-261.42926117 712.17151184 -252.70252212 724.17986925 -241.74707031 732.38818359 C-239.02975154 729.67086483 -238.37332086 726.5593847 -237.27832031 722.97021484 C-237.04227585 722.21476379 -236.80623138 721.45931274 -236.56303406 720.68096924 C-236.05309536 719.04662998 -235.54597813 717.41140832 -235.04135132 715.77542114 C-233.96434676 712.28420827 -232.87377684 708.7972805 -231.78398132 705.31004333 C-231.2288511 703.53321221 -230.67442253 701.75616173 -230.12068176 699.97889709 C-227.77468884 692.45317521 -225.36749766 684.94879351 -222.93457031 677.45068359 C-222.12033046 674.93389684 -221.30639505 672.41701496 -220.49316406 669.89990234 C-220.28108307 669.24348251 -220.06900208 668.58706268 -219.85049438 667.91075134 C-211.26988159 641.33411367 -202.81943432 614.71792504 -194.55255127 588.04205322 C-189.76781317 572.6064326 -184.86376625 557.21445591 -179.86865234 541.84570312 C-178.00260313 536.09320226 -176.15468954 530.33492604 -174.30957031 524.57568359 C-173.99133301 523.58536133 -173.6730957 522.59503906 -173.34521484 521.57470703 C-172.47192824 518.84809651 -171.60770752 516.11881012 -170.74707031 513.38818359 C-170.45429199 512.47246582 -170.16151367 511.55674805 -169.85986328 510.61328125 C-169.44631592 509.28949463 -169.44631592 509.28949463 -169.02441406 507.93896484 C-168.77812256 507.1581958 -168.53183105 506.37742676 -168.27807617 505.57299805 C-167.58962451 503.1151118 -167.58962451 503.1151118 -167.74707031 499.38818359 C-172.45220546 497.93632467 -176.33023952 498.98360175 -181.05957031 499.95068359 Z " fill="#045A29" transform="translate(390.7470703125,27.61181640625)"/>
<path d="M0 0 C23.43 0 46.86 0 71 0 C71.495 1.485 71.495 1.485 72 3 C63.05536869 3.06946766 54.11083004 3.12279465 45.16598797 3.15543652 C41.01266143 3.17110189 36.85951925 3.19235582 32.70629883 3.22631836 C28.69924415 3.2588811 24.69236696 3.27684645 20.6851902 3.28463173 C19.15533465 3.29018082 17.62548897 3.30101676 16.09570885 3.31719017 C13.95511145 3.33892415 11.81525027 3.34196872 9.67456055 3.34057617 C8.45544479 3.34723801 7.23632904 3.35389984 5.98027039 3.36076355 C3 3 3 3 0 0 Z " fill="#02320F" transform="translate(384,28)"/>
<path d="M0 0 C0.99 0.33 1.98 0.66 3 1 C1.18398182 6.74633772 -1.21678591 12.15809247 -3.66015625 17.66015625 C-4.80353003 20.51025707 -5.64772266 22.95957554 -6 26 C-5.67 26.66 -5.34 27.32 -5 28 C-6.3125 30.625 -6.3125 30.625 -8 33 C-8.66 33 -9.32 33 -10 33 C-10.33 34.32 -10.66 35.64 -11 37 C-12.15234375 35.51953125 -12.15234375 35.51953125 -13 33 C-12.33186293 30.08476515 -11.5684313 27.48397723 -10.5625 24.6875 C-10.28970215 23.89875488 -10.0169043 23.11000977 -9.73583984 22.29736328 C-7.00789738 14.61876747 -3.63246922 7.28643234 0 0 Z " fill="#044F21" transform="translate(74,576)"/>
<path d="M0 0 C4.21165438 0.51245162 6.17989809 1.66850948 9.171875 4.640625 C9.91824219 5.38183594 10.66460937 6.12304688 11.43359375 6.88671875 C12.19800781 7.66660156 12.96242188 8.44648437 13.75 9.25 C14.52988281 10.01441406 15.30976563 10.77882813 16.11328125 11.56640625 C16.85449219 12.31277344 17.59570312 13.05914063 18.359375 13.828125 C19.03452148 14.5077832 19.70966797 15.18744141 20.40527344 15.88769531 C22.21160167 18.28027826 22.64134648 20.05235657 23 23 C21.66102417 22.04956626 20.32894573 21.08940853 19 20.125 C18.2575 19.59132813 17.515 19.05765625 16.75 18.5078125 C16.1725 18.01023437 15.595 17.51265625 15 17 C15 16.34 15 15.68 15 15 C14.01 15 13.02 15 12 15 C12 13.68 12 12.36 12 11 C11.01 10.67 10.02 10.34 9 10 C9 9.34 9 8.68 9 8 C8.443125 7.79375 7.88625 7.5875 7.3125 7.375 C4.07498698 5.44999226 2.31768859 2.96149098 0 0 Z " fill="#095228" transform="translate(352,526)"/>
<path d="M0 0 C1.82519531 0.22705078 1.82519531 0.22705078 4 1 C5.46386719 2.90185547 5.46386719 2.90185547 6.796875 5.3671875 C7.28027344 6.25277344 7.76367188 7.13835938 8.26171875 8.05078125 C8.99841797 9.44876953 8.99841797 9.44876953 9.75 10.875 C10.25660156 11.79925781 10.76320313 12.72351563 11.28515625 13.67578125 C15 20.57477679 15 20.57477679 15 24 C11.33585446 22.55708341 10.05574092 20.93107183 8.203125 17.5 C7.71972656 16.613125 7.23632812 15.72625 6.73828125 14.8125 C6.24714844 13.884375 5.75601562 12.95625 5.25 12 C4.74339844 11.071875 4.23679687 10.14375 3.71484375 9.1875 C0 2.29851752 0 2.29851752 0 0 Z " fill="#034E23" transform="translate(446,663)"/>
<path d="M0 0 C2.28000291 8.04274273 -0.57590943 17.5811371 -4 25 C-4.66 25.33 -5.32 25.66 -6 26 C-6.65213292 28.02463255 -6.65213292 28.02463255 -7 30 C-7.66 30 -8.32 30 -9 30 C-6.4062076 19.87510861 -3.18602066 9.94987035 0 0 Z " fill="#1C6438" transform="translate(293,308)"/>
<path d="M0 0 C0.99 0.33 1.98 0.66 3 1 C1.38405168 3.04119788 -0.2856382 5.04072937 -2 7 C-2.66 7 -3.32 7 -4 7 C-4.23460938 7.56203125 -4.46921875 8.1240625 -4.7109375 8.703125 C-6.30663 11.54635891 -8.28924543 13.48098127 -10.625 15.75 C-11.44226563 16.54921875 -12.25953125 17.3484375 -13.1015625 18.171875 C-13.72804688 18.77515625 -14.35453125 19.3784375 -15 20 C-15 15.11971026 -12.36596143 12.25988053 -9.08203125 8.88671875 C-7.99728841 7.81512431 -6.90732242 6.74879429 -5.8125 5.6875 C-5.25369141 5.13771484 -4.69488281 4.58792969 -4.11914062 4.02148438 C-2.75062588 2.67636304 -1.37593167 1.33753357 0 0 Z " fill="#014C1E" transform="translate(117,521)"/>
<path d="M0 0 C5.22654901 1.47642627 8.16826439 4.82231936 11.8125 8.625 C12.7087207 9.54152344 12.7087207 9.54152344 13.62304688 10.4765625 C15.08895106 11.97764839 16.54542993 13.48792862 18 15 C16.68 15.33 15.36 15.66 14 16 C13.7525 15.38125 13.505 14.7625 13.25 14.125 C11.79371361 11.64931313 10.62187494 11.04874998 8 10 C8 9.34 8 8.68 8 8 C7.34 8 6.68 8 6 8 C6 7.34 6 6.68 6 6 C5.38125 5.7525 4.7625 5.505 4.125 5.25 C1.64931313 3.79371361 1.04874998 2.62187494 0 0 Z " fill="#427858" transform="translate(719,521)"/>
<path d="M0 0 C0 3 0 3 -2 5.1875 C-2.99901185 6.12605292 -3.9991849 7.06337019 -5 8 C-6.44149118 9.4334977 -7.87882481 10.87118534 -9.3125 12.3125 C-10.54166667 13.54166667 -11.77083333 14.77083333 -13 16 C-13.66 15.67 -14.32 15.34 -15 15 C-13.42026316 11.1711463 -10.97939543 8.71226241 -8.0625 5.8125 C-7.18722656 4.93207031 -6.31195313 4.05164063 -5.41015625 3.14453125 C-3 1 -3 1 0 0 Z " fill="#015719" transform="translate(338,741)"/>
<path d="M0 0 C3.68881485 3.53156519 6.77382244 7.18534092 9.8125 11.3125 C10.21919922 11.86228516 10.62589844 12.41207031 11.04492188 12.97851562 C12.03368611 14.31625547 13.01738585 15.65773623 14 17 C13.34 17.33 12.68 17.66 12 18 C7.74116333 14.95797381 4.61396757 11.5160461 2 7 C2 6.34 2 5.68 2 5 C1.34 5 0.68 5 0 5 C0 3.35 0 1.7 0 0 Z " fill="#2D6944" transform="translate(740,541)"/>
<path d="M0 0 C0.99 0 1.98 0 3 0 C2.71561048 1.89693861 2.42216208 3.79252027 2.125 5.6875 C1.96257812 6.74324219 1.80015625 7.79898438 1.6328125 8.88671875 C1.04106931 11.79794914 0.1968194 14.28955607 -1 17 C-1.33 16.34 -1.66 15.68 -2 15 C-2.66 15 -3.32 15 -4 15 C-3.50341703 9.33895411 -2.45489316 5.12325529 0 0 Z " fill="#105A2F" transform="translate(85,965)"/>
<path d="M0 0 C3.0016419 3.30259808 3.38487514 5.52261632 3.3125 9.9375 C3.30863281 10.95714844 3.30476563 11.97679687 3.30078125 13.02734375 C2.99644886 16.03509637 2.26248479 18.26880782 1 21 C0.67 21 0.34 21 0 21 C-1.44987304 13.93186891 -1.44987304 7.06813109 0 0 Z " fill="#0F4E2D" transform="translate(55,649)"/>
<path d="M0 0 C2.91517292 1.07401108 4.77810176 1.77810176 7 4 C8.64991582 4.70710678 10.31562256 5.37943989 12 6 C12 6.66 12 7.32 12 8 C13.32 8 14.64 8 16 8 C16 7.01 16 6.02 16 5 C15.34 4.67 14.68 4.34 14 4 C14.66 4 15.32 4 16 4 C16.33 3.34 16.66 2.68 17 2 C17.33 4.97 17.66 7.94 18 11 C17.01 11.33 16.02 11.66 15 12 C12.83131619 10.76075211 10.98090018 9.5026059 9 8 C8.21109375 7.40832031 7.4221875 6.81664062 6.609375 6.20703125 C1.98438669 2.68011406 1.98438669 2.68011406 0 1 C0 0.67 0 0.34 0 0 Z " fill="#186031" transform="translate(396,778)"/>
<path d="M0 0 C1.98 0.99 1.98 0.99 4 2 C4 2.66 4 3.32 4 4 C4.66 4 5.32 4 6 4 C7.38007251 5.2848951 8.70420353 6.63015802 10 8 C10.9075 8.9075 11.815 9.815 12.75 10.75 C13.4925 11.4925 14.235 12.235 15 13 C14.67 13.66 14.34 14.32 14 15 C10.21074194 12.90009145 7.25611277 10.55334604 4.1875 7.5 C3.39730469 6.7265625 2.60710937 5.953125 1.79296875 5.15625 C0 3 0 3 0 0 Z " fill="#034D1C" transform="translate(469,775)"/>
<path d="M0 0 C0.99 0.33 1.98 0.66 3 1 C1.9318153 6.11365014 0.76892524 11.07227969 -1 16 C-1.99 15.67 -2.98 15.34 -4 15 C-2.9318153 9.88634986 -1.76892524 4.92772031 0 0 Z " fill="#034A20" transform="translate(127,831)"/>
<path d="M0 0 C2.44800876 3.67201314 3.44921696 7.23580454 4.6875 11.4375 C4.92533203 12.20126953 5.16316406 12.96503906 5.40820312 13.75195312 C5.62798828 14.49251953 5.84777344 15.23308594 6.07421875 15.99609375 C6.27619873 16.66825928 6.47817871 17.3404248 6.6862793 18.03295898 C7.04778485 20.29961285 6.6917026 21.83044526 6 24 C4 23 4 23 3.18359375 20.6640625 C1.49146243 13.77150667 0.40458857 7.08727561 0 0 Z " fill="#1A5F34" transform="translate(551,334)"/>
<path d="M0 0 C4.06225548 0.57823096 6.84762346 1.89117737 10.3125 4.0625 C11.19550781 4.61035156 12.07851563 5.15820312 12.98828125 5.72265625 C13.65214844 6.14417969 14.31601562 6.56570313 15 7 C14.67 8.32 14.34 9.64 14 11 C12.22891052 9.87540329 10.45813764 8.75030797 8.6875 7.625 C7.20830078 6.68527344 7.20830078 6.68527344 5.69921875 5.7265625 C3.78712071 4.50348387 1.8885966 3.2590644 0 2 C0 1.34 0 0.68 0 0 Z " fill="#034C1B" transform="translate(535,772)"/>
<path d="M0 0 C2.475 0.495 2.475 0.495 5 1 C5 1.99 5 2.98 5 4 C5.66 4 6.32 4 7 4 C9.57403248 7.45885615 11.76594945 10.84910269 13 15 C12.67 15.99 12.34 16.98 12 18 C6 9 6 9 0 0 Z " fill="#357450" transform="translate(357,601)"/>
<path d="M0 0 C0 0.66 0 1.32 0 2 C-0.66 2 -1.32 2 -2 2 C-1.67 2.99 -1.34 3.98 -1 5 C-1.55859375 7.48046875 -1.55859375 7.48046875 -2.4375 10.1875 C-2.72496094 11.08855469 -3.01242188 11.98960937 -3.30859375 12.91796875 C-3.53675781 13.60503906 -3.76492187 14.29210937 -4 15 C-4.99 14.67 -5.98 14.34 -7 14 C-6.34694438 9.53745327 -5.42765922 5.28297767 -4 1 C-2 0 -2 0 0 0 Z " fill="#034A1C" transform="translate(208,587)"/>
<path d="M0 0 C0.99 0 1.98 0 3 0 C3.5590711 1.91166247 4.09666462 3.82961576 4.625 5.75 C4.92664063 6.81734375 5.22828125 7.8846875 5.5390625 8.984375 C6.03345719 12.21888938 5.79570284 13.33874255 4 16 C3.32586789 14.08594633 2.6609668 12.16863974 2 10.25 C1.62875 9.18265625 1.2575 8.1153125 0.875 7.015625 C0 4 0 4 0 0 Z " fill="#064A1D" transform="translate(487,125)"/>
<path d="M0 0 C2.11044382 3.16566573 2.75552077 5.51197415 3.625 9.1875 C3.88539063 10.27417969 4.14578125 11.36085938 4.4140625 12.48046875 C4.60742188 13.31191406 4.80078125 14.14335938 5 15 C3.109375 14.8046875 3.109375 14.8046875 1 14 C-0.046875 11.8203125 -0.046875 11.8203125 -0.75 9.125 C-0.99234375 8.24070312 -1.2346875 7.35640625 -1.484375 6.4453125 C-2 4 -2 4 -2 1 C-1.34 0.67 -0.68 0.34 0 0 Z " fill="#024119" transform="translate(468,55)"/>
<path d="M0 0 C0.66 0.33 1.32 0.66 2 1 C0.68 4.63 -0.64 8.26 -2 12 C-1.34 12.33 -0.68 12.66 0 13 C-1.65 13.33 -3.3 13.66 -5 14 C-4.85892253 12.54119891 -4.71197585 11.08296449 -4.5625 9.625 C-4.48128906 8.81289063 -4.40007812 8.00078125 -4.31640625 7.1640625 C-4 5 -4 5 -3 3 C-2.01 3 -1.02 3 0 3 C0 2.01 0 1.02 0 0 Z " fill="#136039" transform="translate(225,781)"/>
<path d="M0 0 C0.99 0.99 1.98 1.98 3 3 C0.42076634 6.15842999 -2.35531286 6.99251691 -6.1875 8.1875 C-7.27417969 8.53167969 -8.36085938 8.87585938 -9.48046875 9.23046875 C-10.31191406 9.48441406 -11.14335937 9.73835937 -12 10 C-12 9.34 -12 8.68 -12 8 C-10.23596271 6.74163402 -8.41220501 5.5661735 -6.5625 4.4375 C-3.09563564 2.46466077 -3.09563564 2.46466077 0 0 Z " fill="#145B31" transform="translate(310,765)"/>
<path d="M0 0 C0.99 0.33 1.98 0.66 3 1 C2.35952602 4.44748958 1.00294981 6.84644185 -0.9375 9.75 C-1.46214844 10.54921875 -1.98679687 11.3484375 -2.52734375 12.171875 C-3.01332031 12.77515625 -3.49929687 13.3784375 -4 14 C-4.66 14 -5.32 14 -6 14 C-6 12.68 -6 11.36 -6 10 C-5.01 10 -4.02 10 -3 10 C-3.33 8.68 -3.66 7.36 -4 6 C-3.34 6 -2.68 6 -2 6 C-2 4.68 -2 3.36 -2 2 C-1.34 2 -0.68 2 0 2 C0 1.34 0 0.68 0 0 Z " fill="#2B6D49" transform="translate(128,575)"/>
<path d="M0 0 C0.8353125 0.556875 0.8353125 0.556875 1.6875 1.125 C-6.51939655 8.125 -6.51939655 8.125 -11.3125 8.125 C-11.3125 7.135 -11.3125 6.145 -11.3125 5.125 C-9.6625 4.795 -8.0125 4.465 -6.3125 4.125 C-6.6425 3.135 -6.9725 2.145 -7.3125 1.125 C-2.88173077 -1.09038462 -2.88173077 -1.09038462 0 0 Z " fill="#236845" transform="translate(314.3125,818.875)"/>
<path d="M0 0 C2.64 0 5.28 0 8 0 C5.24865461 2.95514876 2.60266225 5.1524809 -1 7 C-1.99 7 -2.98 7 -4 7 C-4 6.01 -4 5.02 -4 4 C-3.34 4 -2.68 4 -2 4 C-2 3.34 -2 2.68 -2 2 C-1.34 2 -0.68 2 0 2 C0 1.34 0 0.68 0 0 Z " fill="#25653F" transform="translate(321,812)"/>
<path d="M0 0 C0.66 0.33 1.32 0.66 2 1 C-7.71425228 8.44839691 -7.71425228 8.44839691 -11 10 C-13.3125 9.6875 -13.3125 9.6875 -15 9 C-14.4225 8.7525 -13.845 8.505 -13.25 8.25 C-10.90652273 7.0985301 -10.90652273 7.0985301 -9.1875 5.0625 C-6.29416108 2.33449473 -3.75037853 1.31957763 0 0 Z " fill="#024E1F" transform="translate(301,773)"/>
<path d="M0 0 C2.12600304 3.18900456 3.02136239 5.90414569 4.125 9.5625 C4.47820313 10.71878906 4.83140625 11.87507813 5.1953125 13.06640625 C6 16 6 16 6 18 C5.34 18 4.68 18 4 18 C4 17.01 4 16.02 4 15 C3.01 15 2.02 15 1 15 C0.15318867 9.91913204 -0.09038099 5.15171623 0 0 Z " fill="#236940" transform="translate(582,438)"/>
<path d="M0 0 C0.66 0 1.32 0 2 0 C1.71517632 1.41805831 1.42181856 2.83440379 1.125 4.25 C0.96257812 5.03890625 0.80015625 5.8278125 0.6328125 6.640625 C0.00849925 8.96831144 -0.84838542 10.89031952 -2 13 C-2.99 13 -3.98 13 -5 13 C-3.125 5.375 -3.125 5.375 -2 2 C-1.34 2 -0.68 2 0 2 C0 1.34 0 0.68 0 0 Z " fill="#024A20" transform="translate(357,364)"/>
<path d="M0 0 C0.99 0 1.98 0 3 0 C3.98248524 4.0527516 4.08159574 7.83861737 4 12 C3.01 12.33 2.02 12.66 1 13 C0.67 8.71 0.34 4.42 0 0 Z " fill="#034E22" transform="translate(404,732)"/>
<path d="M0 0 C0.99 0 1.98 0 3 0 C3 0.99 3 1.98 3 3 C3.99 3 4.98 3 6 3 C6.50615298 4.26839526 7.00469099 5.53983102 7.5 6.8125 C7.91765625 7.87404297 7.91765625 7.87404297 8.34375 8.95703125 C9 11 9 11 9 14 C8.34 14 7.68 14 7 14 C4.69 9.38 2.38 4.76 0 0 Z " fill="#31714C" transform="translate(381,638)"/>
<path d="M0 0 C0.33 0 0.66 0 1 0 C1.1799928 5.21979128 0.97094808 9.07262981 -1 14 C-1.99 14 -2.98 14 -4 14 C-3.34 10.04 -2.68 6.08 -2 2 C-1.34 2 -0.68 2 0 2 C0 1.34 0 0.68 0 0 Z " fill="#04491A" transform="translate(60,619)"/>
<path d="M0 0 C0.99 0.33 1.98 0.66 3 1 C2.69078116 2.45903258 2.37751201 3.91720722 2.0625 5.375 C1.88847656 6.18710937 1.71445312 6.99921875 1.53515625 7.8359375 C1 10 1 10 0 12 C-0.99 11.67 -1.98 11.34 -3 11 C-2.69078116 9.54096742 -2.37751201 8.08279278 -2.0625 6.625 C-1.88847656 5.81289063 -1.71445312 5.00078125 -1.53515625 4.1640625 C-1 2 -1 2 0 0 Z " fill="#01481B" transform="translate(349,385)"/>
<path d="M0 0 C0.88751953 0.19916016 0.88751953 0.19916016 1.79296875 0.40234375 C5.85446525 1.31005178 9.91374171 2.2091113 14 3 C13 4.625 13 4.625 11 6 C8.22721907 5.68210155 5.65494678 4.83572221 3 4 C1.66872733 3.65852971 0.33592866 3.32277471 -1 3 C-0.67 2.01 -0.34 1.02 0 0 Z " fill="#014E1B" transform="translate(568,788)"/>
<path d="M0 0 C0.66 3.63 1.32 7.26 2 11 C1.01 11.66 0.02 12.32 -1 13 C-1.99 9.37 -2.98 5.74 -4 2 C-1 0 -1 0 0 0 Z " fill="#155D34" transform="translate(673,1002)"/>
<path d="M0 0 C2.97763386 2.97763386 3.53966922 6.51692908 4.6875 10.5 C4.92533203 11.28503906 5.16316406 12.07007813 5.40820312 12.87890625 C7.12513951 18.74972098 7.12513951 18.74972098 6 21 C5.01 20.67 4.02 20.34 3 20 C0.88838269 6.3667426 0.88838269 6.3667426 0 0 Z " fill="#206640" transform="translate(731,936)"/>
<path d="M0 0 C3.43668423 3.43668423 5.6767505 8.30625414 6.2578125 13.1484375 C6.25120248 14.76789326 6.13733072 16.38636406 6 18 C3.14408797 16.57204399 2.99880674 14.99229292 2 12 C1.57426894 9.90550831 1.19999506 7.79996789 0.875 5.6875 C0.70742188 4.61886719 0.53984375 3.55023437 0.3671875 2.44921875 C0.24601563 1.64097656 0.12484375 0.83273437 0 0 Z " fill="#014D20" transform="translate(674,750)"/>
<path d="M0 0 C0.66 0 1.32 0 2 0 C1.54705135 1.75140143 1.08741252 3.50107344 0.625 5.25 C0.36976563 6.22453125 0.11453125 7.1990625 -0.1484375 8.203125 C-0.89598509 10.65837303 -1.77123817 12.75617405 -3 15 C-3.66 14.34 -4.32 13.68 -5 13 C-4.7048558 8.57283694 -3.43991118 5.65986677 -1 2 C-0.67 1.34 -0.34 0.68 0 0 Z " fill="#01491F" transform="translate(175,685)"/>
<path d="M0 0 C0.66 0.33 1.32 0.66 2 1 C1.71517632 2.41805831 1.42181856 3.83440379 1.125 5.25 C0.88136719 6.43335938 0.88136719 6.43335938 0.6328125 7.640625 C0.00849925 9.96831144 -0.84838542 11.89031952 -2 14 C-2.33 14 -2.66 14 -3 14 C-3.0270043 12.54176788 -3.04639787 11.08339325 -3.0625 9.625 C-3.07410156 8.81289063 -3.08570313 8.00078125 -3.09765625 7.1640625 C-3 5 -3 5 -2 3 C-1.34 3 -0.68 3 0 3 C0 2.01 0 1.02 0 0 Z " fill="#034D26" transform="translate(193,879)"/>
<path d="M0 0 C0.99 0.33 1.98 0.66 3 1 C2.34 4.3 1.68 7.6 1 11 C-0.32 11 -1.64 11 -3 11 C-2.69078116 9.54096742 -2.37751201 8.08279278 -2.0625 6.625 C-1.88847656 5.81289063 -1.71445313 5.00078125 -1.53515625 4.1640625 C-1 2 -1 2 0 0 Z " fill="#014923" transform="translate(167,706)"/>
<path d="M0 0 C0.99 0.66 1.98 1.32 3 2 C2.01 5.3 1.02 8.6 0 12 C-0.99 11.67 -1.98 11.34 -3 11 C-1.125 3.375 -1.125 3.375 0 0 Z " fill="#024A22" transform="translate(393,246)"/>
<path d="M0 0 C2.57146057 2.57146057 2.80117997 4.6050417 3.625 8.125 C3.88539063 9.22070312 4.14578125 10.31640625 4.4140625 11.4453125 C4.70410156 12.70988281 4.70410156 12.70988281 5 14 C1.1640625 12.2734375 1.1640625 12.2734375 -0.3125 9.8125 C-1.17572311 6.28113274 -0.69397137 3.539254 0 0 Z " fill="#195E38" transform="translate(722,906)"/>
<path d="M0 0 C0.99 0.33 1.98 0.66 3 1 C2.34 3.97 1.68 6.94 1 10 C-0.32 10.33 -1.64 10.66 -3 11 C-2.67 8.36 -2.34 5.72 -2 3 C-1.34 3 -0.68 3 0 3 C0 2.01 0 1.02 0 0 Z " fill="#034820" transform="translate(401,221)"/>
<path d="M0 0 C5.03985731 0.44469329 7.37634988 2.71343362 11 6 C10.67 6.99 10.34 7.98 10 9 C6.04322598 7.32598022 3.15535787 4.86850715 0 2 C0 1.34 0 0.68 0 0 Z " fill="#1B5935" transform="translate(511,753)"/>
<path d="M0 0 C5 2 5 2 6.875 4.9375 C8 8 8 8 7 11 C6.34 11 5.68 11 5 11 C3.35 7.37 1.7 3.74 0 0 Z " fill="#30714B" transform="translate(389,653)"/>
<path d="M0 0 C0.66 1.32 1.32 2.64 2 4 C0.68 5.32 -0.64 6.64 -2 8 C-1.34 8.33 -0.68 8.66 0 9 C-2.33333333 11.33333333 -4.66666667 13.66666667 -7 16 C-6.40165275 11.85701333 -4.99335715 8.81805623 -2.9375 5.1875 C-2.11572266 3.72376953 -2.11572266 3.72376953 -1.27734375 2.23046875 C-0.85582031 1.49441406 -0.43429687 0.75835938 0 0 Z " fill="#136434" transform="translate(725,710)"/>
<path d="M0 0 C1.98 0 3.96 0 6 0 C5.67 2.31 5.34 4.62 5 7 C4.01 7.33 3.02 7.66 2 8 C1.34 5.36 0.68 2.72 0 0 Z " fill="#145C35" transform="translate(551,607)"/>
<path d="M0 0 C0.53625 0.226875 1.0725 0.45375 1.625 0.6875 C0.965 0.6875 0.305 0.6875 -0.375 0.6875 C-0.045 1.6775 0.285 2.6675 0.625 3.6875 C-2.345 4.3475 -5.315 5.0075 -8.375 5.6875 C-8.375 4.6975 -8.375 3.7075 -8.375 2.6875 C-2.95961538 -0.38942308 -2.95961538 -0.38942308 0 0 Z " fill="#0C4B23" transform="translate(717.375,1010.3125)"/>
<path d="M0 0 C1.17539996 0.92652701 2.34010577 1.86663387 3.5 2.8125 C4.1496875 3.33457031 4.799375 3.85664062 5.46875 4.39453125 C7 6 7 6 7 9 C6.01 9 5.02 9 4 9 C1.25 6.1875 1.25 6.1875 -1 3 C-0.67 2.01 -0.34 1.02 0 0 Z " fill="#034B19" transform="translate(503,742)"/>
<path d="M0 0 C-4.95 2.31 -9.9 4.62 -15 7 C-14.67 5.35 -14.34 3.7 -14 2 C-13.278125 1.87625 -12.55625 1.7525 -11.8125 1.625 C-8.98435578 1.09184669 -8.98435578 1.09184669 -6.4375 -0.125 C-4 -1 -4 -1 0 0 Z " fill="#478162" transform="translate(184,537)"/>
<path d="M0 0 C0.66 0 1.32 0 2 0 C2.66 3.3 3.32 6.6 4 10 C3.01 10.33 2.02 10.66 1 11 C0.63743142 9.5437328 0.28520207 8.08488815 -0.0625 6.625 C-0.35833984 5.40683594 -0.35833984 5.40683594 -0.66015625 4.1640625 C-1 2 -1 2 0 0 Z " fill="#024E20" transform="translate(646,920)"/>
<path d="M0 0 C2.96404505 2.80804268 5.44499019 5.18315774 7 9 C4 9 4 9 2.3125 7.625 C1 6 1 6 1 4 C0.34 4 -0.32 4 -1 4 C-0.67 2.68 -0.34 1.36 0 0 Z " fill="#0E622D" transform="translate(488,725)"/>
<path d="M0 0 C1.890625 0.21484375 1.890625 0.21484375 4 1 C5.046875 3.06640625 5.046875 3.06640625 5.75 5.5625 C5.99234375 6.38878906 6.2346875 7.21507812 6.484375 8.06640625 C6.65453125 8.70449219 6.8246875 9.34257813 7 10 C6.01 10 5.02 10 4 10 C3.32845067 8.71086513 2.66291141 7.41859796 2 6.125 C1.62875 5.40570312 1.2575 4.68640625 0.875 3.9453125 C0 2 0 2 0 0 Z " fill="#014D1E" transform="translate(430,632)"/>
<path d="M0 0 C4.42679007 1.47559669 4.91432696 3.90057368 7 8 C7 8.66 7 9.32 7 10 C5.1875 9.875 5.1875 9.875 3 9 C1.04679411 5.79116175 0 3.7794561 0 0 Z " fill="#045022" transform="translate(716,588)"/>
<path d="M0 0 C4.82034262 0.41317222 6.90992611 2.38019915 10 6 C10 6.66 10 7.32 10 8 C6.40094092 7.44449305 5.00090201 6.25112752 2.75 3.4375 C2.22921875 2.79683594 1.7084375 2.15617188 1.171875 1.49609375 C0.78515625 1.00238281 0.3984375 0.50867188 0 0 Z " fill="#034D18" transform="translate(352,526)"/>
<path d="M0 0 C3.3 0.33 6.6 0.66 10 1 C9.67 2.32 9.34 3.64 9 5 C4.545 4.01 4.545 4.01 0 3 C0 2.01 0 1.02 0 0 Z " fill="#0B4C27" transform="translate(623,524)"/>
<path d="M0 0 C1.71370351 2.96528472 2.08346949 3.6205932 1.3125 7.125 C0 10 0 10 -3 12 C-4.21386936 8.35839192 -3.6674695 7.66834531 -2.0625 4.3125 C-1.49208984 3.10013672 -1.49208984 3.10013672 -0.91015625 1.86328125 C-0.60980469 1.24839844 -0.30945313 0.63351562 0 0 Z " fill="#01461F" transform="translate(389,262)"/>
<path d="M0 0 C2.45731872 2.45731872 2.72888693 4.21495432 3.5625 7.5625 C4.21422403 11.07774999 4.21422403 11.07774999 6 14 C6.04063832 15.66617115 6.042721 17.33388095 6 19 C5.67 18.01 5.34 17.02 5 16 C4.34 16 3.68 16 3 16 C2.49595192 13.89679937 1.99689492 11.79240209 1.5 9.6875 C1.08234375 7.92986328 1.08234375 7.92986328 0.65625 6.13671875 C0 3 0 3 0 0 Z " fill="#004F1E" transform="translate(442,237)"/>
<path d="M0 0 C1.98 0.495 1.98 0.495 4 1 C3.34 3.97 2.68 6.94 2 10 C1.01 9.34 0.02 8.68 -1 8 C-0.67 5.36 -0.34 2.72 0 0 Z " fill="#04501C" transform="translate(405,205)"/>
<path d="M0 0 C1.875 0.5 1.875 0.5 4 2 C4.98494554 4.65177645 5.45912382 7.20547307 6 10 C5.34 10 4.68 10 4 10 C3.67 10.66 3.34 11.32 3 12 C2.49440092 10.56445975 1.9957251 9.1264798 1.5 7.6875 C1.2215625 6.88699219 0.943125 6.08648437 0.65625 5.26171875 C0 3 0 3 0 0 Z " fill="#04441C" transform="translate(474,83)"/>
<path d="M0 0 C0.66 0.33 1.32 0.66 2 1 C0.68 4.3 -0.64 7.6 -2 11 C-2.66 10.67 -3.32 10.34 -4 10 C-3.38461538 3.47692308 -3.38461538 3.47692308 -1.4375 1.0625 C-0.7259375 0.5365625 -0.7259375 0.5365625 0 0 Z " fill="#276B42" transform="translate(286,589)"/>
<path d="M0 0 C0.66 0.33 1.32 0.66 2 1 C-0.13790949 3.35170044 -2.00593401 4.88791835 -5 6 C-8.25 6.125 -8.25 6.125 -11 6 C-7.57874946 3.12614955 -4.16111563 1.54115394 0 0 Z " fill="#2F7147" transform="translate(163,492)"/>
<path d="M0 0 C0.33 0.66 0.66 1.32 1 2 C-4.71735105 4.45029331 -8.79029227 5.33266291 -15 5 C-11.83433427 2.88955618 -9.48802585 2.24447923 -5.8125 1.375 C-4.72582031 1.11460937 -3.63914063 0.85421875 -2.51953125 0.5859375 C-1.68808594 0.39257812 -0.85664063 0.19921875 0 0 Z " fill="#266B41" transform="translate(195,481)"/>
<path d="M0 0 C0.66 0.66 1.32 1.32 2 2 C0.68 6.29 -0.64 10.58 -2 15 C-2.66 15 -3.32 15 -4 15 C-3.67 12.03 -3.34 9.06 -3 6 C-2.34 6 -1.68 6 -1 6 C-0.67 4.02 -0.34 2.04 0 0 Z " fill="#014C1D" transform="translate(287,332)"/>
<path d="M0 0 C0.66 0 1.32 0 2 0 C2.50512244 1.60256108 3.00391627 3.20711792 3.5 4.8125 C3.7784375 5.70582031 4.056875 6.59914063 4.34375 7.51953125 C5 10 5 10 5 13 C4.34 13 3.68 13 3 13 C3 12.01 3 11.02 3 10 C2.34 10 1.68 10 1 10 C0.67 6.7 0.34 3.4 0 0 Z " fill="#024F21" transform="translate(634,880)"/>
<path d="M0 0 C0.66 0 1.32 0 2 0 C2.67057887 1.7902061 3.3363469 3.58221489 4 5.375 C4.556875 6.87160156 4.556875 6.87160156 5.125 8.3984375 C6 11 6 11 6 13 C5.34 13 4.68 13 4 13 C3.67 11.68 3.34 10.36 3 9 C2.01 9.495 2.01 9.495 1 10 C0.67 6.7 0.34 3.4 0 0 Z " fill="#23623E" transform="translate(696,823)"/>
<path d="M0 0 C4.6952463 5.60400365 5.11588746 8.93086474 5 16 C3.13389074 13.20083611 2.31214617 11.18061731 1.375 8 C1.11460937 7.13375 0.85421875 6.2675 0.5859375 5.375 C0 3 0 3 0 0 Z " fill="#014D1D" transform="translate(663,713)"/>
<path d="M0 0 C0.98120464 3.05263664 0.98120464 4.94736336 0 8 C-2.31 8.33 -4.62 8.66 -7 9 C-6.02180976 7.68677212 -5.0424189 6.37443848 -4.0625 5.0625 C-3.51722656 4.33160156 -2.97195313 3.60070312 -2.41015625 2.84765625 C-1 1 -1 1 0 0 Z " fill="#2B6844" transform="translate(455,557)"/>
<path d="M0 0 C0.66 0 1.32 0 2 0 C2 0.66 2 1.32 2 2 C2.66 2.33 3.32 2.66 4 3 C1.05770079 3.9807664 -0.9908784 4.16488128 -4.0625 4.1875 C-5.37927734 4.20876953 -5.37927734 4.20876953 -6.72265625 4.23046875 C-9 4 -9 4 -11 2 C-7.37 2 -3.74 2 0 2 C0 1.34 0 0.68 0 0 Z " fill="#6EA184" transform="translate(240,474)"/>
<path d="M0 0 C0.66 0 1.32 0 2 0 C1.85892253 1.45880109 1.71197585 2.91703551 1.5625 4.375 C1.48128906 5.18710937 1.40007812 5.99921875 1.31640625 6.8359375 C1 9 1 9 0 11 C-0.66 11 -1.32 11 -2 11 C-1.85892253 9.54119891 -1.71197585 8.08296449 -1.5625 6.625 C-1.48128906 5.81289063 -1.40007812 5.00078125 -1.31640625 4.1640625 C-1 2 -1 2 0 0 Z " fill="#024F21" transform="translate(258,420)"/>
<path d="M0 0 C2.11044382 3.16566573 2.75552077 5.51197415 3.625 9.1875 C3.88539063 10.27417969 4.14578125 11.36085938 4.4140625 12.48046875 C4.60742188 13.31191406 4.80078125 14.14335937 5 15 C4.01 14.67 3.02 14.34 2 14 C0.19113429 9.23982707 -0.20666253 5.06323209 0 0 Z " fill="#306E47" transform="translate(573,408)"/>
<path d="M0 0 C0.33 0 0.66 0 1 0 C0.58846263 4.97093824 0.20399168 9.44508386 -2 14 C-2.66 14 -3.32 14 -4 14 C-3.34 10.04 -2.68 6.08 -2 2 C-1.34 2 -0.68 2 0 2 C0 1.34 0 0.68 0 0 Z " fill="#034C1F" transform="translate(308,266)"/>
<path d="M0 0 C6.52307692 -0.36923077 6.52307692 -0.36923077 8.9375 1.5 C9.288125 1.995 9.63875 2.49 10 3 C3.6 4.23076923 3.6 4.23076923 0.5625 3.0625 C0.046875 2.711875 -0.46875 2.36125 -1 2 C-0.67 1.34 -0.34 0.68 0 0 Z " fill="#185F38" transform="translate(578,838)"/>
<path d="M0 0 C0.66 0 1.32 0 2 0 C3.28317892 3.84953676 3.06643637 6.94738135 3 11 C2.34 11 1.68 11 1 11 C-0.20272819 8.59454362 -0.10071472 7.05003047 -0.0625 4.375 C-0.05347656 3.55773437 -0.04445313 2.74046875 -0.03515625 1.8984375 C-0.02355469 1.27195312 -0.01195312 0.64546875 0 0 Z " fill="#004516" transform="translate(780,668)"/>
<path d="M0 0 C5.5 1.46666667 5.5 1.46666667 7.875 4 C9 6 9 6 9 8 C7.0625 7.6875 7.0625 7.6875 5 7 C4.67 6.01 4.34 5.02 4 4 C3.34 4 2.68 4 2 4 C1.34 2.68 0.68 1.36 0 0 Z " fill="#1D5F37" transform="translate(383,559)"/>
<path d="M0 0 C1.43396751 2.86793501 0.55024337 4.88195423 0 8 C-0.03622333 9.66627298 -0.04899842 11.33405374 0 13 C-1.32 13 -2.64 13 -4 13 C-3.71517632 11.58194169 -3.42181856 10.16559621 -3.125 8.75 C-2.96257812 7.96109375 -2.80015625 7.1721875 -2.6328125 6.359375 C-2.00849925 4.03168856 -1.15161458 2.10968048 0 0 Z " fill="#1E6943" transform="translate(272,376)"/>
<path d="M0 0 C0.33 0 0.66 0 1 0 C0.5547115 5.27315333 -0.08373163 10.01770224 -2 15 C-2.66 15 -3.32 15 -4 15 C-3.71617054 13.24871182 -3.42260471 11.49899997 -3.125 9.75 C-2.96257812 8.77546875 -2.80015625 7.8009375 -2.6328125 6.796875 C-2.05144152 4.22735883 -1.29159735 2.27928944 0 0 Z " fill="#014B1E" transform="translate(296,303)"/>
<path d="M0 0 C0.66 0.33 1.32 0.66 2 1 C-1.3 4.3 -4.6 7.6 -8 11 C-8.66 10.67 -9.32 10.34 -10 10 C-8.58852088 6.47130219 -7.36906104 5.58544049 -4 4 C-2.62913085 2.70529025 -1.28659163 1.37849103 0 0 Z " fill="#02491F" transform="translate(333,746)"/>
<path d="M0 0 C0.99 0 1.98 0 3 0 C3 3.57575896 1.91159393 5.05295935 0 8 C-1.32 7.34 -2.64 6.68 -4 6 C-2.1875 3 -2.1875 3 0 0 Z " fill="#034921" transform="translate(713,731)"/>
<path d="M0 0 C0.66 0 1.32 0 2 0 C2.33 3.3 2.66 6.6 3 10 C2.01 10.33 1.02 10.66 0 11 C-1.125 3.375 -1.125 3.375 0 0 Z " fill="#024A1A" transform="translate(58,687)"/>
<path d="M0 0 C-3.33333333 2.66666667 -6.66666667 5.33333333 -10 8 C-10.66 7.67 -11.32 7.34 -12 7 C-8.35652318 2.225789 -6.21818523 -0.33611812 0 0 Z " fill="#03421A" transform="translate(142,506)"/>
<path d="M0 0 C1.32630565 4.14470514 1.98384711 9.03230578 0 13 C-0.99 12.67 -1.98 12.34 -3 12 C-2.68950274 10.56206608 -2.3765224 9.1246682 -2.0625 7.6875 C-1.88847656 6.88699219 -1.71445312 6.08648437 -1.53515625 5.26171875 C-1 3 -1 3 0 0 Z " fill="#21653E" transform="translate(299,289)"/>
<path d="M0 0 C0.99 0 1.98 0 3 0 C2.34 2.97 1.68 5.94 1 9 C0.01 8.67 -0.98 8.34 -2 8 C-1.125 2.25 -1.125 2.25 0 0 Z " fill="#02421B" transform="translate(413,184)"/>
<path d="M0 0 C0.66 0 1.32 0 2 0 C2.66 2.64 3.32 5.28 4 8 C3.34 8 2.68 8 2 8 C1.67 8.66 1.34 9.32 1 10 C0.63883954 8.5225254 0.28624952 7.04295325 -0.0625 5.5625 C-0.25972656 4.73878906 -0.45695312 3.91507812 -0.66015625 3.06640625 C-0.82837891 2.04353516 -0.82837891 2.04353516 -1 1 C-0.67 0.67 -0.34 0.34 0 0 Z " fill="#08481B" transform="translate(485,115)"/>
<path d="M0 0 C2.29013653 3.4352048 2.17842973 4.985331 2 9 C0.35 9.33 -1.3 9.66 -3 10 C-2.01 6.7 -1.02 3.4 0 0 Z " fill="#00461D" transform="translate(106,897)"/>
<path d="M0 0 C4.95 1.98 4.95 1.98 10 4 C9.67 4.66 9.34 5.32 9 6 C6.69 5.67 4.38 5.34 2 5 C1.34 3.35 0.68 1.7 0 0 Z " fill="#185E32" transform="translate(553,781)"/>
<path d="M0 0 C2.91517292 1.07401108 4.77810176 1.77810176 7 4 C8.64991582 4.70710678 10.31562256 5.37943989 12 6 C11.67 7.32 11.34 8.64 11 10 C9.16375669 8.52444734 7.3310715 7.04446569 5.5 5.5625 C4.4790625 4.73878906 3.458125 3.91507813 2.40625 3.06640625 C1.6121875 2.38449219 0.818125 1.70257812 0 1 C0 0.67 0 0.34 0 0 Z " fill="#437C5A" transform="translate(396,778)"/>
<path d="M0 0 C0.99 0.33 1.98 0.66 3 1 C3 1.66 3 2.32 3 3 C2.34 3 1.68 3 1 3 C0.896875 3.639375 0.79375 4.27875 0.6875 4.9375 C0.460625 5.618125 0.23375 6.29875 0 7 C-0.99 7.33 -1.98 7.66 -3 8 C-3.33 7.01 -3.66 6.02 -4 5 C-2.0625 2.3125 -2.0625 2.3125 0 0 Z " fill="#064B23" transform="translate(706,741)"/>
<path d="M0 0 C0 3.75586417 -1.14246188 5.76650772 -3 9 C-3.99 9.66 -4.98 10.32 -6 11 C-6.33 10.01 -6.66 9.02 -7 8 C-5.56640625 5.95703125 -5.56640625 5.95703125 -3.5625 3.8125 C-2.90378906 3.09707031 -2.24507813 2.38164063 -1.56640625 1.64453125 C-1.04949219 1.10183594 -0.53257813 0.55914063 0 0 Z " fill="#1C6432" transform="translate(102,536)"/>
<path d="M0 0 C0.33 1.32 0.66 2.64 1 4 C0.01 4.33 -0.98 4.66 -2 5 C-2.73323796 7.01508358 -2.73323796 7.01508358 -3 9 C-3.66 8.67 -4.32 8.34 -5 8 C-5 5.69 -5 3.38 -5 1 C-3.35 0.67 -1.7 0.34 0 0 Z " fill="#337651" transform="translate(227,523)"/>
<path d="M0 0 C0.66 0 1.32 0 2 0 C2.66 1.65 3.32 3.3 4 5 C3.01 5.33 2.02 5.66 1 6 C1 6.66 1 7.32 1 8 C-0.32 8 -1.64 8 -3 8 C-2.67 7.01 -2.34 6.02 -2 5 C-1.34 5 -0.68 5 0 5 C0 3.35 0 1.7 0 0 Z " fill="#357652" transform="translate(518,497)"/>
<path d="M0 0 C0.99 0.33 1.98 0.66 3 1 C2.34 3.97 1.68 6.94 1 10 C0.67 9.34 0.34 8.68 0 8 C-0.66 8 -1.32 8 -2 8 C-1.34 5.36 -0.68 2.72 0 0 Z " fill="#024521" transform="translate(341,410)"/>
<path d="M0 0 C0.99 0.33 1.98 0.66 3 1 C2.67 2.98 2.34 4.96 2 7 C0.68 7.33 -0.64 7.66 -2 8 C-1.34 5.36 -0.68 2.72 0 0 Z " fill="#024620" transform="translate(362,344)"/>
<path d="M0 0 C0.33 0 0.66 0 1 0 C1.36630156 3.93774177 1.30233203 5.56539771 -1 8.875 C-1.66 9.57625 -2.32 10.2775 -3 11 C-3.125 4.25 -3.125 4.25 -2 2 C-1.34 2 -0.68 2 0 2 C0 1.34 0 0.68 0 0 Z " fill="#015022" transform="translate(329,200)"/>
<path d="M0 0 C0.99 0 1.98 0 3 0 C3.66 2.64 4.32 5.28 5 8 C4.01 8.33 3.02 8.66 2 9 C1.34 6.03 0.68 3.06 0 0 Z " fill="#03441B" transform="translate(494,149)"/>
<path d="M0 0 C-0.33 1.65 -0.66 3.3 -1 5 C-1.66 5 -2.32 5 -3 5 C-3 4.01 -3 3.02 -3 2 C-4.32 2 -5.64 2 -7 2 C-7 1.34 -7 0.68 -7 0 C-3.86650268 -1.04449911 -3.01031744 -0.93423645 0 0 Z " fill="#004512" transform="translate(403,699)"/>
<path d="M0 0 C2.56687367 3.8503105 1.83288724 5.58569763 1 10 C0.34 10 -0.32 10 -1 10 C-2.15837626 5.94568308 -1.83691257 3.78187881 0 0 Z " fill="#0E572E" transform="translate(732,687)"/>
<path d="M0 0 C0.66 0 1.32 0 2 0 C2 0.99 2 1.98 2 3 C2.99 3 3.98 3 5 3 C4.67 5.64 4.34 8.28 4 11 C1.6870518 8.6870518 1.50419025 7.52095125 0.875 4.375 C0.70742188 3.55773437 0.53984375 2.74046875 0.3671875 1.8984375 C0.24601563 1.27195312 0.12484375 0.64546875 0 0 Z " fill="#256E48" transform="translate(729,622)"/>
<path d="M0 0 C2.31 0 4.62 0 7 0 C1.30379747 4.74683544 1.30379747 4.74683544 -2 6 C-2.66 5.67 -3.32 5.34 -4 5 C-4 4.34 -4 3.68 -4 3 C-2.68 2.67 -1.36 2.34 0 2 C0 1.34 0 0.68 0 0 Z " fill="#448060" transform="translate(160,545)"/>
<path d="M0 0 C0 3.58912412 -0.66436554 4.10857029 -3 6.6875 C-3.556875 7.31011719 -4.11375 7.93273437 -4.6875 8.57421875 C-5.120625 9.04472656 -5.55375 9.51523437 -6 10 C-6.66 9.67 -7.32 9.34 -8 9 C-5.89851796 5.01824456 -3.63094642 2.64960955 0 0 Z " fill="#014D1F" transform="translate(472,540)"/>
<path d="M0 0 C0 3 0 3 -1 6 C-1.66 6 -2.32 6 -3 6 C-3 6.66 -3 7.32 -3 8 C-4.65 8 -6.3 8 -8 8 C-5.33333333 5.33333333 -2.66666667 2.66666667 0 0 Z " fill="#407A58" transform="translate(500,513)"/>
<path d="M0 0 C0.66 0.33 1.32 0.66 2 1 C-2.30769231 6.78461538 -2.30769231 6.78461538 -5.8125 7.875 C-6.8953125 7.936875 -6.8953125 7.936875 -8 8 C-8 7.34 -8 6.68 -8 6 C-6.25 4.4921875 -6.25 4.4921875 -4 2.875 C-3.2575 2.33617187 -2.515 1.79734375 -1.75 1.2421875 C-1.1725 0.83226562 -0.595 0.42234375 0 0 Z " fill="#226638" transform="translate(131,510)"/>
<path d="M0 0 C2.723562 2.723562 4.83083543 5.13918974 5.19140625 9.10546875 C5.18792682 11.07134503 5.099831 13.03665708 5 15 C3.25050228 12.37575342 2.34610019 10.44272784 1.375 7.5 C0.98441406 6.33984375 0.98441406 6.33984375 0.5859375 5.15625 C0 3 0 3 0 0 Z " fill="#074B1F" transform="translate(531,273)"/>
<path d="M0 0 C0.66 0 1.32 0 2 0 C2.66 2.64 3.32 5.28 4 8 C3.01 8.33 2.02 8.66 1 9 C0.63877119 7.68942607 0.28619689 6.37646376 -0.0625 5.0625 C-0.35833984 3.96615234 -0.35833984 3.96615234 -0.66015625 2.84765625 C-0.77230469 2.23792969 -0.88445313 1.62820312 -1 1 C-0.67 0.67 -0.34 0.34 0 0 Z " fill="#05411C" transform="translate(513,209)"/>
<path d="M0 0 C0.19658808 1.41543415 0.38187546 2.83244031 0.5625 4.25 C0.66691406 5.03890625 0.77132812 5.8278125 0.87890625 6.640625 C1.00027349 9.00532874 0.69633257 10.7511037 0 13 C-0.50559908 11.56445975 -1.0042749 10.1264798 -1.5 8.6875 C-1.7784375 7.88699219 -2.056875 7.08648438 -2.34375 6.26171875 C-3 4 -3 4 -3 1 C-1 0 -1 0 0 0 Z " fill="#066C21" transform="translate(634,874)"/>
<path d="M0 0 C0.66 0 1.32 0 2 0 C0.515 5.445 0.515 5.445 -1 11 C-1.66 11 -2.32 11 -3 11 C-3 8.69 -3 6.38 -3 4 C-2.34 3.67 -1.68 3.34 -1 3 C-0.67 2.01 -0.34 1.02 0 0 Z " fill="#034B1E" transform="translate(119,861)"/>
<path d="M0 0 C0 3 0 3 -1.875 5.1875 C-4 7 -4 7 -6 7 C-6.33 7.99 -6.66 8.98 -7 10 C-8.32 9.67 -9.64 9.34 -11 9 C-10.37351562 8.51789062 -9.74703125 8.03578125 -9.1015625 7.5390625 C-7.87566406 6.59160156 -7.87566406 6.59160156 -6.625 5.625 C-5.81289063 4.99851562 -5.00078125 4.37203125 -4.1640625 3.7265625 C-1.95776805 2.03226506 -1.95776805 2.03226506 0 0 Z " fill="#2A7646" transform="translate(694,755)"/>
<path d="M0 0 C0.99 0 1.98 0 3 0 C2.34 2.64 1.68 5.28 1 8 C0.34 8 -0.32 8 -1 8 C-1.93065133 5.39417629 -2.14917407 4.35801776 -1.0625 1.75 C-0.711875 1.1725 -0.36125 0.595 0 0 Z " fill="#01491F" transform="translate(152,754)"/>
<path d="M0 0 C0.66 0 1.32 0 2 0 C2.66 2.97 3.32 5.94 4 9 C3.01 9 2.02 9 1 9 C0.63877119 7.68942607 0.28619689 6.37646376 -0.0625 5.0625 C-0.35833984 3.96615234 -0.35833984 3.96615234 -0.66015625 2.84765625 C-0.77230469 2.23792969 -0.88445313 1.62820313 -1 1 C-0.67 0.67 -0.34 0.34 0 0 Z " fill="#04431D" transform="translate(561,637)"/>
<path d="M0 0 C0.66 0 1.32 0 2 0 C1.34 2.64 0.68 5.28 0 8 C-1.32 8.33 -2.64 8.66 -4 9 C-2.94124926 5.59687262 -1.99097846 2.98646769 0 0 Z " fill="#014920" transform="translate(194,625)"/>
<path d="M0 0 C0.99 0.66 1.98 1.32 3 2 C2.01 2.33 1.02 2.66 0 3 C-0.73323796 5.01508358 -0.73323796 5.01508358 -1 7 C-0.34 7.33 0.32 7.66 1 8 C0.01 8.33 -0.98 8.66 -2 9 C-2.33 9.99 -2.66 10.98 -3 12 C-4 10 -4 10 -3.22265625 7.6171875 C-2.83980469 6.71226562 -2.45695313 5.80734375 -2.0625 4.875 C-1.68222656 3.96492187 -1.30195313 3.05484375 -0.91015625 2.1171875 C-0.60980469 1.41851563 -0.30945313 0.71984375 0 0 Z " fill="#256B43" transform="translate(196,616)"/>
<path d="M0 0 C1.75 0.0625 1.75 0.0625 4 1 C5.72518887 3.25123006 6.76906007 5.40134903 8 8 C7.67 8.66 7.34 9.32 7 10 C6.67 9.01 6.34 8.02 6 7 C5.01 7 4.02 7 3 7 C2.814375 5.824375 2.814375 5.824375 2.625 4.625 C2.20882007 1.85942178 2.20882007 1.85942178 0 0 Z " fill="#196136" transform="translate(411,597)"/>
<path d="M0 0 C3.78786597 0.5260925 6.17152224 1.38103911 9 4 C9 4.66 9 5.32 9 6 C6.61435923 5.42415568 4.33317216 4.77772405 2 4 C0.8125 1.9375 0.8125 1.9375 0 0 Z " fill="#05521D" transform="translate(331,509)"/>
<path d="M0 0 C2.55803184 3.83704776 4.34505724 7.75712791 3.625 12.4375 C3.41875 12.953125 3.2125 13.46875 3 14 C2.34 13.67 1.68 13.34 1 13 C0.5859375 10.05859375 0.5859375 10.05859375 0.375 6.4375 C0.30023437 5.23996094 0.22546875 4.04242188 0.1484375 2.80859375 C0.09945312 1.88175781 0.05046875 0.95492188 0 0 Z " fill="#34724C" transform="translate(554,344)"/>
<path d="M0 0 C1.37432457 3.81756824 0.67975039 7.07255329 0 11 C-1.5625 9.3125 -1.5625 9.3125 -3 7 C-2.6875 4.25 -2.6875 4.25 -2 2 C-1.34 2 -0.68 2 0 2 C0 1.34 0 0.68 0 0 Z " fill="#095026" transform="translate(339,168)"/>
<path d="M0 0 C0.66 0.66 1.32 1.32 2 2 C0.515 4.475 0.515 4.475 -1 7 C-2.65 6.67 -4.3 6.34 -6 6 C-5.34 5.67 -4.68 5.34 -4 5 C-4 4.34 -4 3.68 -4 3 C-2.68 3 -1.36 3 0 3 C0 2.01 0 1.02 0 0 Z " fill="#225936" transform="translate(151,1013)"/>
<path d="M0 0 C0.66 0 1.32 0 2 0 C2 0.66 2 1.32 2 2 C2.99 2 3.98 2 5 2 C5 2.66 5 3.32 5 4 C1.535 5.485 1.535 5.485 -2 7 C-1.125 2.25 -1.125 2.25 0 0 Z " fill="#296C48" transform="translate(206,837)"/>
<path d="M0 0 C0 0.66 0 1.32 0 2 C1.32 2 2.64 2 4 2 C4 2.66 4 3.32 4 4 C0.7 3.67 -2.6 3.34 -6 3 C-6 2.34 -6 1.68 -6 1 C-3.92446352 0.4465236 -2.15634036 0 0 0 Z " fill="#024A1C" transform="translate(587,792)"/>
<path d="M0 0 C1.98 1.65 3.96 3.3 6 5 C5.67 6.65 5.34 8.3 5 10 C2.08772731 6.71195019 0.50298788 4.40114397 0 0 Z " fill="#074E21" transform="translate(429,723)"/>
<path d="M0 0 C0.66 0.66 1.32 1.32 2 2 C1.67028521 5.29714793 1.3773161 6.6226839 -1 9 C-1.66 8.34 -2.32 7.68 -3 7 C-2.01 4.69 -1.02 2.38 0 0 Z " fill="#165931" transform="translate(170,698)"/>
<path d="M0 0 C2.0625 0.4375 2.0625 0.4375 4 1 C1.75 3.5625 1.75 3.5625 -1 6 C-3.3125 5.8125 -3.3125 5.8125 -5 5 C-4.34 5 -3.68 5 -3 5 C-2.5359375 4.0409375 -2.5359375 4.0409375 -2.0625 3.0625 C-1 1 -1 1 0 0 Z " fill="#04471B" transform="translate(500,576)"/>
<path d="M0 0 C2.31 1.98 4.62 3.96 7 6 C5.68 6.33 4.36 6.66 3 7 C1.68 5.35 0.36 3.7 -1 2 C-0.67 1.34 -0.34 0.68 0 0 Z " fill="#014B1F" transform="translate(694,559)"/>
<path d="M0 0 C1.8125 0.1875 1.8125 0.1875 4 1 C5.8125 3.4375 5.8125 3.4375 7 6 C6.67 6.66 6.34 7.32 6 8 C4.99403703 7.0479279 3.99538437 6.08812654 3 5.125 C2.443125 4.59132813 1.88625 4.05765625 1.3125 3.5078125 C0 2 0 2 0 0 Z " fill="#05491E" transform="translate(368,541)"/>
<path d="M0 0 C2.31 0.33 4.62 0.66 7 1 C5.25 3 5.25 3 3 5 C1.68 5 0.36 5 -1 5 C-0.67 3.35 -0.34 1.7 0 0 Z " fill="#135E34" transform="translate(198,480)"/>
<path d="M0 0 C1.13643966 3.40931897 0.86747764 4.00335456 -0.4375 7.1875 C-0.72496094 7.90292969 -1.01242187 8.61835938 -1.30859375 9.35546875 C-1.53675781 9.89816406 -1.76492188 10.44085938 -2 11 C-3.125 9.375 -3.125 9.375 -4 7 C-3.25 3.8125 -3.25 3.8125 -2 1 C-1.34 0.67 -0.68 0.34 0 0 Z " fill="#01411B" transform="translate(336,178)"/>
<path d="M0 0 C0.33 0 0.66 0 1 0 C1.21278058 4.46839215 0.59138085 7.82262526 -1 12 C-1.66 12 -2.32 12 -3 12 C-3 10.02 -3 8.04 -3 6 C-2.34 6 -1.68 6 -1 6 C-0.67 4.02 -0.34 2.04 0 0 Z " fill="#024B1D" transform="translate(347,143)"/>
<path d="M0 0 C3 2 3 2 3.51171875 3.9453125 C3.67447917 5.96354167 3.83723958 7.98177083 4 10 C3.67 9.01 3.34 8.02 3 7 C2.01 6.67 1.02 6.34 0 6 C-0.38218767 4.34385343 -0.71395102 2.67542976 -1 1 C-0.67 0.67 -0.34 0.34 0 0 Z " fill="#0E5E3A" transform="translate(747,993)"/>
<path d="M0 0 C1.88391785 3.26545761 2.49287967 6.28111761 3 10 C2.01 10.33 1.02 10.66 0 11 C-1.35015859 6.94952424 -0.62084998 4.2079832 0 0 Z " fill="#256944" transform="translate(745,981)"/>
<path d="M0 0 C0.66 0.33 1.32 0.66 2 1 C2 1.66 2 2.32 2 3 C-2.47058824 7 -2.47058824 7 -5 7 C-3.75023244 3.34683329 -3.32901247 2.21934164 0 0 Z " fill="#286B42" transform="translate(712,801)"/>
<path d="M0 0 C0.33 0.66 0.66 1.32 1 2 C1.66 2 2.32 2 3 2 C3.66 3.65 4.32 5.3 5 7 C2.13275314 6.42655063 1.1385485 6.1385485 -1 4 C-0.625 1.875 -0.625 1.875 0 0 Z " fill="#0F5528" transform="translate(99,774)"/>
<path d="M0 0 C0.99 0.66 1.98 1.32 3 2 C0.03 4.475 0.03 4.475 -3 7 C-3.66 6.67 -4.32 6.34 -5 6 C-5 5.34 -5 4.68 -5 4 C-3.37373596 2.61767557 -1.7074998 1.28062485 0 0 Z " fill="#03461B" transform="translate(316,760)"/>
<path d="M0 0 C1.5625 1.8125 1.5625 1.8125 3 4 C2.67 4.99 2.34 5.98 2 7 C1.34 7 0.68 7 0 7 C0.33 7.99 0.66 8.98 1 10 C0.01 9.67 -0.98 9.34 -2 9 C-1.34 6.03 -0.68 3.06 0 0 Z " fill="#014918" transform="translate(184,651)"/>
<path d="M0 0 C2.45823172 3.68734758 3.01242616 6.69699971 4 11 C3.01 11 2.02 11 1 11 C-0.28317892 7.15046324 -0.06643637 4.05261865 0 0 Z " fill="#216738" transform="translate(644,645)"/>
<path d="M0 0 C0.99 0.33 1.98 0.66 3 1 C2.67 2.65 2.34 4.3 2 6 C1.34 6 0.68 6 0 6 C0 6.66 0 7.32 0 8 C-0.66 8 -1.32 8 -2 8 C-1.125 2.25 -1.125 2.25 0 0 Z " fill="#034E1D" transform="translate(275,618)"/>
<path d="M0 0 C0.66 0.33 1.32 0.66 2 1 C1.34 3.64 0.68 6.28 0 9 C-1.5625 7.75 -1.5625 7.75 -3 6 C-2.6875 3.8125 -2.6875 3.8125 -2 2 C-1.34 2 -0.68 2 0 2 C0 1.34 0 0.68 0 0 Z " fill="#02501E" transform="translate(289,577)"/>
<path d="M0 0 C0.66 0.33 1.32 0.66 2 1 C1.01 2.98 0.02 4.96 -1 7 C-1.99 7 -2.98 7 -4 7 C-3.6875 4.625 -3.6875 4.625 -3 2 C-2.01 1.34 -1.02 0.68 0 0 Z " fill="#125D2F" transform="translate(79,570)"/>
<path d="M0 0 C2.40072955 2.88087546 4.47291037 5.56404834 6 9 C5.01 9.33 4.02 9.66 3 10 C3 9.34 3 8.68 3 8 C2.34 8 1.68 8 1 8 C0.67 5.36 0.34 2.72 0 0 Z " fill="#27673D" transform="translate(756,563)"/>
<path d="M0 0 C3 1 3 1 4.0625 2.9375 C4.371875 3.618125 4.68125 4.29875 5 5 C5.66 5.66 6.32 6.32 7 7 C7.33 7.99 7.66 8.98 8 10 C4.51127585 8.83709195 3.90023136 7.86032391 1.8125 4.9375 C1.28269531 4.20402344 0.75289062 3.47054687 0.20703125 2.71484375 C-0.19128906 2.14894531 -0.58960938 1.58304688 -1 1 C-0.67 0.67 -0.34 0.34 0 0 Z " fill="#2C734A" transform="translate(701,568)"/>
<path d="M0 0 C0.99 0.33 1.98 0.66 3 1 C-0.32307692 4.93846154 -0.32307692 4.93846154 -3.75 5.25 C-4.4925 5.1675 -5.235 5.085 -6 5 C-2.25 1.125 -2.25 1.125 0 0 Z " fill="#226739" transform="translate(145,501)"/>
<path d="M0 0 C0.66 0.33 1.32 0.66 2 1 C1.67 1.99 1.34 2.98 1 4 C1.66 4.33 2.32 4.66 3 5 C2.34 6.32 1.68 7.64 1 9 C0.01 9 -0.98 9 -2 9 C-1.34 6.03 -0.68 3.06 0 0 Z " fill="#1B6839" transform="translate(255,427)"/>
<path d="M0 0 C1.98 0.495 1.98 0.495 4 1 C2.515 4.465 2.515 4.465 1 8 C-1 5 -1 5 -0.625 2.3125 C-0.41875 1.549375 -0.2125 0.78625 0 0 Z " fill="#0A5731" transform="translate(345,397)"/>
<path d="M0 0 C0 1.65 0 3.3 0 5 C-1.32 5 -2.64 5 -4 5 C-4 5.66 -4 6.32 -4 7 C-4.66 6.67 -5.32 6.34 -6 6 C-5.1875 3.5625 -5.1875 3.5625 -4 1 C-1 0 -1 0 0 0 Z " fill="#0F5631" transform="translate(361,107)"/>
<path d="M0 0 C0.33 0 0.66 0 1 0 C2.34516765 6.35897436 2.34516765 6.35897436 0.6875 9.4375 C-1 11 -1 11 -3 11 C-2.01 7.37 -1.02 3.74 0 0 Z " fill="#206E3E" transform="translate(369,69)"/>
<path d="M0 0 C-0.66 1.32 -1.32 2.64 -2 4 C-4.31 3.67 -6.62 3.34 -9 3 C-5.92807025 0.26939578 -4.09590633 -0.34132553 0 0 Z " fill="#1C5E3A" transform="translate(146,1014)"/>
<path d="M0 0 C0 0.99 0 1.98 0 3 C0.66 3.33 1.32 3.66 2 4 C-4.75 3.25 -4.75 3.25 -7 1 C-4.53721199 -0.231394 -2.7204945 -0.07159196 0 0 Z " fill="#197545" transform="translate(129,1010)"/>
<path d="M0 0 C2.31 0.33 4.62 0.66 7 1 C6.01 1.495 6.01 1.495 5 2 C4.67 2.99 4.34 3.98 4 5 C2.02 4.34 0.04 3.68 -2 3 C-1.34 2.67 -0.68 2.34 0 2 C0 1.34 0 0.68 0 0 Z " fill="#0A4E21" transform="translate(117,1007)"/>
<path d="M0 0 C2.66735273 2.48952921 4.55746343 4.63408134 6 8 C4.125 7.6875 4.125 7.6875 2 7 C0 4 0 4 0 0 Z " fill="#10552E" transform="translate(121,727)"/>
<path d="M0 0 C0.66 0 1.32 0 2 0 C2.25 6.625 2.25 6.625 0 10 C-0.33 9.67 -0.66 9.34 -1 9 C-0.91062197 7.47480724 -0.75462854 5.95318071 -0.5625 4.4375 C-0.46066406 3.61121094 -0.35882813 2.78492188 -0.25390625 1.93359375 C-0.17011719 1.29550781 -0.08632812 0.65742187 0 0 Z " fill="#024F1F" transform="translate(243,718)"/>
<path d="M0 0 C2.0625 2.3125 2.0625 2.3125 4 5 C3.67 5.99 3.34 6.98 3 8 C2.34 8 1.68 8 1 8 C0.01 6.02 -0.98 4.04 -2 2 C-1.34 2 -0.68 2 0 2 C0 1.34 0 0.68 0 0 Z " fill="#024B1B" transform="translate(438,643)"/>
<path d="M0 0 C0.99 0.33 1.98 0.66 3 1 C2.67 2.65 2.34 4.3 2 6 C1.34 6 0.68 6 0 6 C-0.33 6.66 -0.66 7.32 -1 8 C-1.04241723 5.66705225 -1.04092937 3.33297433 -1 1 C-0.67 0.67 -0.34 0.34 0 0 Z " fill="#02511E" transform="translate(268,640)"/>
<path d="M0 0 C2 1.8125 2 1.8125 4 4 C4 4.99 4 5.98 4 7 C3.01 7 2.02 7 1 7 C-0.6875 4.5 -0.6875 4.5 -2 2 C-1.34 2 -0.68 2 0 2 C0 1.34 0 0.68 0 0 Z " fill="#195431" transform="translate(397,573)"/>
<path d="M0 0 C2.875 0.625 2.875 0.625 6 2 C7.375 5.125 7.375 5.125 8 8 C3.79373966 6.49776416 2.26099979 3.71449966 0 0 Z " fill="#074C23" transform="translate(332,569)"/>
<path d="M0 0 C1.65 0.33 3.3 0.66 5 1 C4.67 1.66 4.34 2.32 4 3 C3.34 3 2.68 3 2 3 C1.67 3.99 1.34 4.98 1 6 C0.34 5.67 -0.32 5.34 -1 5 C-0.67 3.35 -0.34 1.7 0 0 Z " fill="#377553" transform="translate(138,563)"/>
<path d="M0 0 C0.33 0.66 0.66 1.32 1 2 C3.02463255 2.65213292 3.02463255 2.65213292 5 3 C4.01 3.495 4.01 3.495 3 4 C3.33 5.65 3.66 7.3 4 9 C2.68 8.67 1.36 8.34 0 8 C0 5.36 0 2.72 0 0 Z " fill="#598B6E" transform="translate(607,523)"/>
<path d="M0 0 C2.03144641 0.93446535 4.03533587 1.93224776 6 3 C6 3.99 6 4.98 6 6 C2.62496331 4.8141763 0.35277269 3.72426311 -2 1 C-1.34 0.67 -0.68 0.34 0 0 Z " fill="#014F1A" transform="translate(317,498)"/>
<path d="M0 0 C-2.97 0.66 -5.94 1.32 -9 2 C-8.67 1.01 -8.34 0.02 -8 -1 C-4.40321889 -2.61235015 -3.79177789 -1.89588895 0 0 Z " fill="#24613B" transform="translate(693,1021)"/>
<path d="M0 0 C0.66 0.66 1.32 1.32 2 2 C1.625 5.125 1.625 5.125 1 8 C0.01 7.67 -0.98 7.34 -2 7 C-1.125 2.25 -1.125 2.25 0 0 Z " fill="#2A6947" transform="translate(174,938)"/>
<path d="M0 0 C2.97 0.495 2.97 0.495 6 1 C4.8125 2.5 4.8125 2.5 3 4 C0.3125 4.1875 0.3125 4.1875 -2 4 C-2 3.34 -2 2.68 -2 2 C-1.34 2 -0.68 2 0 2 C0 1.34 0 0.68 0 0 Z " fill="#0B4D29" transform="translate(327,808)"/>
<path d="M0 0 C0.66 0 1.32 0 2 0 C2 1.98 2 3.96 2 6 C1.34 6 0.68 6 0 6 C0 6.99 0 7.98 0 9 C-0.66 9 -1.32 9 -2 9 C-1.34 6.03 -0.68 3.06 0 0 Z " fill="#054C23" transform="translate(225,775)"/>
<path d="M0 0 C2.35953094 2.35953094 2.49141413 3.77895617 3 7 C1.68 6.67 0.36 6.34 -1 6 C-1.625 4.125 -1.625 4.125 -2 2 C-1.34 1.34 -0.68 0.68 0 0 Z " fill="#07471B" transform="translate(67,719)"/>
<path d="M0 0 C1.32 0.66 2.64 1.32 4 2 C2.02 4.97 2.02 4.97 0 8 C-0.66 7.67 -1.32 7.34 -2 7 C-1.34 4.69 -0.68 2.38 0 0 Z " fill="#256640" transform="translate(162,720)"/>
<path d="M0 0 C0.33 0.66 0.66 1.32 1 2 C1.66 2 2.32 2 3 2 C2.34 3.98 1.68 5.96 1 8 C0.34 7.67 -0.32 7.34 -1 7 C-0.67 4.69 -0.34 2.38 0 0 Z " fill="#1E643C" transform="translate(775,704)"/>
<path d="M0 0 C0.66 0 1.32 0 2 0 C1.67 2.97 1.34 5.94 1 9 C0.34 9 -0.32 9 -1 9 C-1.33 7.35 -1.66 5.7 -2 4 C-1.34 4 -0.68 4 0 4 C0 2.68 0 1.36 0 0 Z " fill="#024A1C" transform="translate(734,681)"/>
<path d="M0 0 C0.33 0 0.66 0 1 0 C1.29296875 6.0546875 1.29296875 6.0546875 1 8 C0.01 8.66 -0.98 9.32 -2 10 C-2.25 3.375 -2.25 3.375 0 0 Z " fill="#00420E" transform="translate(57,669)"/>
<path d="M0 0 C1.875 0.1875 1.875 0.1875 4 1 C5.25 3.5625 5.25 3.5625 6 6 C5.01 6.33 4.02 6.66 3 7 C2.01 4.69 1.02 2.38 0 0 Z " fill="#014F25" transform="translate(426,624)"/>
<path d="M0 0 C1.32 1.65 2.64 3.3 4 5 C3.01 6.485 3.01 6.485 2 8 C0.68 6.02 -0.64 4.04 -2 2 C-1.34 2 -0.68 2 0 2 C0 1.34 0 0.68 0 0 Z " fill="#0A461F" transform="translate(401,578)"/>
<path d="M0 0 C0.99 0 1.98 0 3 0 C3.33 1.98 3.66 3.96 4 6 C-0.875 4.25 -0.875 4.25 -2 2 C-1.34 1.34 -0.68 0.68 0 0 Z " fill="#286944" transform="translate(690,555)"/>
<path d="M0 0 C0.66 0.66 1.32 1.32 2 2 C1.625 5.125 1.625 5.125 1 8 C0.01 7.67 -0.98 7.34 -2 7 C-1.125 1.125 -1.125 1.125 0 0 Z " fill="#024B1F" transform="translate(329,450)"/>
<path d="M0 0 C1.90318884 2.85478326 2.4619099 4.41941308 3.125 7.6875 C3.29257812 8.49574219 3.46015625 9.30398438 3.6328125 10.13671875 C3.75398437 10.75160156 3.87515625 11.36648438 4 12 C3.34 11.67 2.68 11.34 2 11 C2 10.01 2 9.02 2 8 C1.34 8 0.68 8 0 8 C0 5.36 0 2.72 0 0 Z " fill="#377650" transform="translate(547,321)"/>
<path d="M0 0 C0.66 0.33 1.32 0.66 2 1 C1.40138258 3.35171131 0.73075648 5.6859378 0 8 C-0.99 8.495 -0.99 8.495 -2 9 C-3.125 5.25 -3.125 5.25 -2 3 C-1.34 3 -0.68 3 0 3 C0 2.01 0 1.02 0 0 Z " fill="#065022" transform="translate(320,228)"/>
<path d="M0 0 C0.66 0.33 1.32 0.66 2 1 C1.67 2.98 1.34 4.96 1 7 C0.01 6.67 -0.98 6.34 -2 6 C-1.125 1.125 -1.125 1.125 0 0 Z " fill="#17623C" transform="translate(153,1005)"/>
<path d="M0 0 C0.66 0 1.32 0 2 0 C1.34 2.64 0.68 5.28 0 8 C-0.99 7.67 -1.98 7.34 -3 7 C-2.67 5.68 -2.34 4.36 -2 3 C-1.34 3 -0.68 3 0 3 C0 2.01 0 1.02 0 0 Z " fill="#034622" transform="translate(90,952)"/>
<path d="M0 0 C1.485 0.99 1.485 0.99 3 2 C2.67 3.65 2.34 5.3 2 7 C1.01 6.67 0.02 6.34 -1 6 C-0.67 4.02 -0.34 2.04 0 0 Z " fill="#01461B" transform="translate(130,821)"/>
<path d="M0 0 C0.66 0.33 1.32 0.66 2 1 C2 2.65 2 4.3 2 6 C1.01 6 0.02 6 -1 6 C-1.33 4.35 -1.66 2.7 -2 1 C-1.34 0.67 -0.68 0.34 0 0 Z " fill="#136035" transform="translate(407,744)"/>
<path d="M0 0 C1.875 0.1875 1.875 0.1875 4 1 C5.25 3.5625 5.25 3.5625 6 6 C5.01 6.495 5.01 6.495 4 7 C2.02 3.535 2.02 3.535 0 0 Z " fill="#1F6338" transform="translate(442,744)"/>
<path d="M0 0 C0.66 0 1.32 0 2 0 C1.67 2.31 1.34 4.62 1 7 C0.01 7.33 -0.98 7.66 -2 8 C-1.125 1.125 -1.125 1.125 0 0 Z " fill="#02501A" transform="translate(767,728)"/>
<path d="M0 0 C3 1 3 1 4 3 C4.039992 4.99960012 4.04346799 7.00047242 4 9 C1.49701566 6.06171403 0.53069061 3.82097239 0 0 Z " fill="#02451B" transform="translate(112,711)"/>
<path d="M0 0 C1.5 1.1875 1.5 1.1875 3 3 C3.1875 5.6875 3.1875 5.6875 3 8 C0.9375 6.25 0.9375 6.25 -1 4 C-0.75 1.75 -0.75 1.75 0 0 Z " fill="#064E1E" transform="translate(463,689)"/>
<path d="M0 0 C0.66 0 1.32 0 2 0 C3.125 3.75 3.125 3.75 2 6 C0.68 5.67 -0.64 5.34 -2 5 C-1.34 3.35 -0.68 1.7 0 0 Z " fill="#055320" transform="translate(270,633)"/>
<path d="M0 0 C0.93065133 2.60582371 1.14917407 3.64198224 0.0625 6.25 C-0.4634375 7.11625 -0.4634375 7.11625 -1 8 C-2.0625 6.1875 -2.0625 6.1875 -3 4 C-2.67 3.01 -2.34 2.02 -2 1 C-1.34 0.67 -0.68 0.34 0 0 Z " fill="#014518" transform="translate(64,605)"/>
<path d="M0 0 C2.64 0 5.28 0 8 0 C7.67 0.99 7.34 1.98 7 3 C4.69 2.67 2.38 2.34 0 2 C0 1.34 0 0.68 0 0 Z " fill="#083D20" transform="translate(608,523)"/>
<path d="M0 0 C-2.93828597 2.50298434 -5.17902761 3.46930939 -9 4 C-9 3.34 -9 2.68 -9 2 C-5.5647952 -0.29013653 -4.014669 -0.17842973 0 0 Z " fill="#1A5930" transform="translate(156,498)"/>
<path d="M0 0 C1.32 0 2.64 0 4 0 C4 2.64 4 5.28 4 8 C3.34 8 2.68 8 2 8 C1.34 5.36 0.68 2.72 0 0 Z " fill="#26744E" transform="translate(650,940)"/>
<path d="M0 0 C2.31 0.33 4.62 0.66 7 1 C7 2.32 7 3.64 7 5 C4.69 4.01 2.38 3.02 0 2 C0 1.34 0 0.68 0 0 Z " fill="#347751" transform="translate(537,827)"/>
<path d="M0 0 C2.475 0.99 2.475 0.99 5 2 C4.67 2.99 4.34 3.98 4 5 C1.525 4.01 1.525 4.01 -1 3 C-0.67 2.01 -0.34 1.02 0 0 Z " fill="#236841" transform="translate(519,816)"/>
<path d="M0 0 C1.32 1.32 2.64 2.64 4 4 C2.68 4.33 1.36 4.66 0 5 C-0.99 3.68 -1.98 2.36 -3 1 C-2.01 0.67 -1.02 0.34 0 0 Z " fill="#01461C" transform="translate(104,780)"/>
<path d="M0 0 C0.99 0.33 1.98 0.66 3 1 C3.33 2.65 3.66 4.3 4 6 C3.01 6.33 2.02 6.66 1 7 C0.67 4.69 0.34 2.38 0 0 Z " fill="#3D7C5A" transform="translate(680,764)"/>
<path d="M0 0 C0.66 1.32 1.32 2.64 2 4 C2.66 4 3.32 4 4 4 C4 4.66 4 5.32 4 6 C3.01 6.33 2.02 6.66 1 7 C0.01 5.35 -0.98 3.7 -2 2 C-1.34 2 -0.68 2 0 2 C0 1.34 0 0.68 0 0 Z " fill="#094522" transform="translate(88,760)"/>
<path d="M0 0 C0.99 0 1.98 0 3 0 C1.8141763 3.37503669 0.72426311 5.64722731 -2 8 C-1.34 5.36 -0.68 2.72 0 0 Z " fill="#21643D" transform="translate(755,752)"/>
<path d="M0 0 C0.99 0 1.98 0 3 0 C2.67 1.65 2.34 3.3 2 5 C1.01 5.33 0.02 5.66 -1 6 C-0.67 4.02 -0.34 2.04 0 0 Z " fill="#125D2C" transform="translate(758,746)"/>
<path d="M0 0 C1.875 0.125 1.875 0.125 4 1 C5.25 4.0625 5.25 4.0625 6 7 C1.125 3.375 1.125 3.375 0 0 Z " fill="#034F22" transform="translate(131,744)"/>
<path d="M0 0 C2 3 2 3 1.625 5.1875 C1.41875 5.785625 1.2125 6.38375 1 7 C0.34 7 -0.32 7 -1 7 C-1.33 5.02 -1.66 3.04 -2 1 C-1.34 0.67 -0.68 0.34 0 0 Z " fill="#04441C" transform="translate(594,744)"/>
<path d="M0 0 C1.485 0.99 1.485 0.99 3 2 C2.67 3.65 2.34 5.3 2 7 C1.01 6.67 0.02 6.34 -1 6 C-0.67 4.02 -0.34 2.04 0 0 Z " fill="#005617" transform="translate(158,733)"/>
<path d="M0 0 C2.375 0.1875 2.375 0.1875 5 1 C6.3125 3.5625 6.3125 3.5625 7 6 C5.68 5.67 4.36 5.34 3 5 C3 4.01 3 3.02 3 2 C2.01 1.67 1.02 1.34 0 1 C0 0.67 0 0.34 0 0 Z " fill="#084F27" transform="translate(336,729)"/>
<path d="M0 0 C1.32 0.33 2.64 0.66 4 1 C3.67 2.65 3.34 4.3 3 6 C2.01 5.67 1.02 5.34 0 5 C0 3.35 0 1.7 0 0 Z " fill="#236740" transform="translate(239,729)"/>
<path d="M0 0 C3.6 5.4 3.6 5.4 5 8 C4.67 8.66 4.34 9.32 4 10 C2 8.375 2 8.375 0 6 C-0.25 2.75 -0.25 2.75 0 0 Z " fill="#2E724B" transform="translate(116,716)"/>
<path d="M0 0 C1.98 0 3.96 0 6 0 C6 0.66 6 1.32 6 2 C5.01 2 4.02 2 3 2 C2.67 2.66 2.34 3.32 2 4 C1.01 3.67 0.02 3.34 -1 3 C-0.67 2.01 -0.34 1.02 0 0 Z " fill="#01411D" transform="translate(312,709)"/>
<path d="M0 0 C1.98 0 3.96 0 6 0 C6.33 0.99 6.66 1.98 7 3 C5.02 3 3.04 3 1 3 C0.67 2.01 0.34 1.02 0 0 Z " fill="#004922" transform="translate(360,702)"/>
<path d="M0 0 C0.99 0 1.98 0 3 0 C2.67 1.65 2.34 3.3 2 5 C0.68 4.67 -0.64 4.34 -2 4 C-1.34 2.68 -0.68 1.36 0 0 Z " fill="#02481E" transform="translate(729,698)"/>
<path d="M0 0 C0.66 0 1.32 0 2 0 C1.34 2.64 0.68 5.28 0 8 C-0.66 8 -1.32 8 -2 8 C-2 6.02 -2 4.04 -2 2 C-1.34 2 -0.68 2 0 2 C0 1.34 0 0.68 0 0 Z " fill="#014E23" transform="translate(182,663)"/>
<path d="M0 0 C0.66 0 1.32 0 2 0 C2.33 1.98 2.66 3.96 3 6 C2.01 6 1.02 6 0 6 C-0.38218767 4.34385343 -0.71395102 2.67542976 -1 1 C-0.67 0.67 -0.34 0.34 0 0 Z " fill="#02531E" transform="translate(727,610)"/>
<path d="M0 0 C0.66 0 1.32 0 2 0 C3.4783226 2.95664519 3.06032783 5.74229737 3 9 C0.90250005 6.64031256 0.03094296 5.45383006 -0.1875 2.25 C-0.125625 1.5075 -0.06375 0.765 0 0 Z " fill="#014C1C" transform="translate(621,573)"/>
<path d="M0 0 C0.66 0 1.32 0 2 0 C1.34 2.64 0.68 5.28 0 8 C-0.66 8 -1.32 8 -2 8 C-3 5 -3 5 -1.6875 2.3125 C-1.130625 1.549375 -0.57375 0.78625 0 0 Z " fill="#024C1E" transform="translate(220,543)"/>
<path d="M0 0 C2.12508244 3.18762365 2.5020163 5.26512223 3 9 C2.67 8.34 2.34 7.68 2 7 C1.34 7 0.68 7 0 7 C-0.38133299 5.0085944 -0.71325582 3.00720923 -1 1 C-0.67 0.67 -0.34 0.34 0 0 Z " fill="#01481C" transform="translate(515,480)"/>
<path d="M0 0 C0.66 0 1.32 0 2 0 C2.625 1.8125 2.625 1.8125 3 4 C2.01 5.485 2.01 5.485 1 7 C0.34 6.34 -0.32 5.68 -1 5 C-0.625 2.375 -0.625 2.375 0 0 Z " fill="#02471D" transform="translate(334,432)"/>
<path d="M0 0 C2.29633824 3.44450737 2.54016485 5.93812283 3 10 C2.34 10 1.68 10 1 10 C-0.60725635 6.78548731 -0.05748185 3.56387464 0 0 Z " fill="#01491D" transform="translate(494,410)"/>
<path d="M0 0 C0.66 0 1.32 0 2 0 C1.34 2.64 0.68 5.28 0 8 C-0.66 8 -1.32 8 -2 8 C-2 6.02 -2 4.04 -2 2 C-1.34 2 -0.68 2 0 2 C0 1.34 0 0.68 0 0 Z " fill="#024C1F" transform="translate(262,411)"/>
<path d="M0 0 C0.33 0 0.66 0 1 0 C0.67 2.97 0.34 5.94 0 9 C-0.66 9 -1.32 9 -2 9 C-2 7.02 -2 5.04 -2 3 C-1.34 3 -0.68 3 0 3 C0 2.01 0 1.02 0 0 Z " fill="#024C20" transform="translate(276,366)"/>
<path d="M0 0 C1.98 0.495 1.98 0.495 4 1 C3.34 2.32 2.68 3.64 2 5 C1.01 5 0.02 5 -1 5 C-0.67 3.35 -0.34 1.7 0 0 Z " fill="#02451C" transform="translate(374,306)"/>
<path d="M0 0 C0.66 0 1.32 0 2 0 C2 1.65 2 3.3 2 5 C0.68 5.33 -0.64 5.66 -2 6 C-1.34 4.02 -0.68 2.04 0 0 Z " fill="#24693F" transform="translate(312,250)"/>
<path d="M0 0 C2 3.75 2 3.75 2 6 C1.01 6.33 0.02 6.66 -1 7 C-1.33 5.02 -1.66 3.04 -2 1 C-1.34 0.67 -0.68 0.34 0 0 Z " fill="#02421B" transform="translate(494,141)"/>
<path d="M0 0 C0.66 0 1.32 0 2 0 C2.33 1.65 2.66 3.3 3 5 C2.01 5.66 1.02 6.32 0 7 C-0.38133299 5.0085944 -0.71325582 3.00720923 -1 1 C-0.67 0.67 -0.34 0.34 0 0 Z " fill="#034B1C" transform="translate(464,45)"/>
<path d="M0 0 C0.66 0 1.32 0 2 0 C3.125 6.625 3.125 6.625 2 10 C0.68373308 6.38026598 0 3.90432869 0 0 Z " fill="#004A18" transform="translate(729,932)"/>
<path d="M0 0 C3.3 0 6.6 0 10 0 C6.81237635 2.12508244 4.73487777 2.5020163 1 3 C0.67 2.01 0.34 1.02 0 0 Z " fill="#2A6E4B" transform="translate(291,828)"/>
<path d="M0 0 C1.32 0.33 2.64 0.66 4 1 C2.68 2.32 1.36 3.64 0 5 C-0.66 4.67 -1.32 4.34 -2 4 C-2 3.34 -2 2.68 -2 2 C-1.34 2 -0.68 2 0 2 C0 1.34 0 0.68 0 0 Z " fill="#03431A" transform="translate(369,773)"/>
<path d="M0 0 C0.99 0.33 1.98 0.66 3 1 C2.67 1.66 2.34 2.32 2 3 C2.99 3.33 3.98 3.66 5 4 C5.6875 6.0625 5.6875 6.0625 6 8 C1.2 4.55384615 1.2 4.55384615 0.1875 1.75 C0.125625 1.1725 0.06375 0.595 0 0 Z " fill="#095631" transform="translate(90,766)"/>
<path d="M0 0 C1.65 1.65 3.3 3.3 5 5 C3.68 5.33 2.36 5.66 1 6 C0.34 4.35 -0.32 2.7 -1 1 C-0.67 0.67 -0.34 0.34 0 0 Z " fill="#38734C" transform="translate(129,738)"/>
<path d="M0 0 C1.32 0.99 2.64 1.98 4 3 C3.67 3.99 3.34 4.98 3 6 C2.34 6 1.68 6 1 6 C0.34 4.35 -0.32 2.7 -1 1 C-0.67 0.67 -0.34 0.34 0 0 Z " fill="#165634" transform="translate(498,737)"/>
<path d="M0 0 C0.66 0 1.32 0 2 0 C2.66 1.98 3.32 3.96 4 6 C3.01 6.33 2.02 6.66 1 7 C0.34 5.02 -0.32 3.04 -1 1 C-0.67 0.67 -0.34 0.34 0 0 Z " fill="#004B18" transform="translate(72,734)"/>
<path d="M0 0 C0.33 0 0.66 0 1 0 C1 2.31 1 4.62 1 7 C0.01 7.33 -0.98 7.66 -2 8 C-2 6.35 -2 4.7 -2 3 C-1.34 3 -0.68 3 0 3 C0 2.01 0 1.02 0 0 Z " fill="#00471C" transform="translate(405,721)"/>
<path d="M0 0 C0.66 0 1.32 0 2 0 C2 0.99 2 1.98 2 3 C2.99 3.33 3.98 3.66 5 4 C4.67 4.99 4.34 5.98 4 7 C3.34 7 2.68 7 2 7 C0 1.125 0 1.125 0 0 Z " fill="#035020" transform="translate(417,704)"/>
<path d="M0 0 C1.32 0 2.64 0 4 0 C4.66 2.31 5.32 4.62 6 7 C3 6 3 6 1.3125 2.9375 C0.879375 1.968125 0.44625 0.99875 0 0 Z " fill="#02451C" transform="translate(466,698)"/>
<path d="M0 0 C0.33 0 0.66 0 1 0 C1 1.98 1 3.96 1 6 C1.66 6 2.32 6 3 6 C3 6.66 3 7.32 3 8 C2.01 8 1.02 8 0 8 C-0.33 8.99 -0.66 9.98 -1 11 C-0.67 7.37 -0.34 3.74 0 0 Z " fill="#135A34" transform="translate(779,681)"/>
<path d="M0 0 C2.3125 0.1875 2.3125 0.1875 5 1 C6.8125 3.5625 6.8125 3.5625 8 6 C5.6875 5.8125 5.6875 5.8125 3 5 C1.1875 2.4375 1.1875 2.4375 0 0 Z " fill="#02481A" transform="translate(379,554)"/>
<path d="M0 0 C0.33 0.66 0.66 1.32 1 2 C-0.1875 4.5625 -0.1875 4.5625 -2 7 C-3.32 7.33 -4.64 7.66 -6 8 C-4.02 5.36 -2.04 2.72 0 0 Z " fill="#317048" transform="translate(462,549)"/>
<path d="M0 0 C0.66 0.33 1.32 0.66 2 1 C0.9024777 3.99324263 0.32317108 4.84610901 -2.625 6.25 C-3.40875 6.4975 -4.1925 6.745 -5 7 C-3.70700306 4.11562221 -2.34058637 2.12780579 0 0 Z " fill="#3F7D58" transform="translate(488,523)"/>
<path d="M0 0 C2.88437779 1.29299694 4.87219421 2.65941363 7 5 C4.69 4.34 2.38 3.68 0 3 C0 2.01 0 1.02 0 0 Z " fill="#35784E" transform="translate(340,514)"/>
<path d="M0 0 C0.66 0 1.32 0 2 0 C2 2.31 2 4.62 2 7 C0.68 6.67 -0.64 6.34 -2 6 C-1.34 4.02 -0.68 2.04 0 0 Z " fill="#125C34" transform="translate(302,281)"/>
<path d="M0 0 C0.99 0.33 1.98 0.66 3 1 C2.67 2.98 2.34 4.96 2 7 C1.67 6.34 1.34 5.68 1 5 C0.34 5 -0.32 5 -1 5 C-0.67 3.35 -0.34 1.7 0 0 Z " fill="#04451B" transform="translate(395,240)"/>
<path d="M0 0 C0.33 0 0.66 0 1 0 C1.125 5.75 1.125 5.75 0 8 C-0.66 8 -1.32 8 -2 8 C-2.20086443 4.28400809 -2.1519437 3.22791555 0 0 Z " fill="#054A22" transform="translate(342,159)"/>
<path d="M0 0 C0.99 0 1.98 0 3 0 C3.33 1.65 3.66 3.3 4 5 C3.01 5.33 2.02 5.66 1 6 C0.67 4.02 0.34 2.04 0 0 Z " fill="#024317" transform="translate(497,159)"/>
<path d="M0 0 C0.66 0.99 1.32 1.98 2 3 C1.01 4.98 0.02 6.96 -1 9 C-1.66 9 -2.32 9 -3 9 C-2.01 6.03 -1.02 3.06 0 0 Z " fill="#1C7149" transform="translate(353,121)"/>
<path d="M0 0 C0.33 0 0.66 0 1 0 C1.33 2.31 1.66 4.62 2 7 C0.68 7.33 -0.64 7.66 -2 8 C-1.34 5.36 -0.68 2.72 0 0 Z " fill="#026C44" transform="translate(359,100)"/>
<path d="M0 0 C1.9375 0.75 1.9375 0.75 4 2 C4.75 4.125 4.75 4.125 5 6 C4.34 6 3.68 6 3 6 C2.67 6.66 2.34 7.32 2 8 C1.34 5.36 0.68 2.72 0 0 Z " fill="#024A1C" transform="translate(479,100)"/>
<path d="M0 0 C2 3 2 3 1.625 5.1875 C1.41875 5.785625 1.2125 6.38375 1 7 C0.34 7 -0.32 7 -1 7 C-1.33 5.02 -1.66 3.04 -2 1 C-1.34 0.67 -0.68 0.34 0 0 Z " fill="#004216" transform="translate(474,75)"/>
</svg>
